<?xml version="1.0" encoding="UTF-8" standalone="no"?>
<svg
   xmlns:dc="http://purl.org/dc/elements/1.1/"
   xmlns:cc="http://creativecommons.org/ns#"
   xmlns:rdf="http://www.w3.org/1999/02/22-rdf-syntax-ns#"
   xmlns:svg="http://www.w3.org/2000/svg"
   xmlns="http://www.w3.org/2000/svg"
   xml:space="preserve"
   style="enable-background:new 0 0 550.801 550.801;"
   viewBox="0 0 550.801 550.801"
   height="550.801px"
   width="550.801px"
   y="0px"
   x="0px"
   id="Capa_1"
   version="1.1"><metadata
     id="metadata11"><rdf:RDF><cc:Work
         rdf:about=""><dc:format>image/svg+xml</dc:format><dc:type
           rdf:resource="http://purl.org/dc/dcmitype/StillImage" /><dc:title></dc:title></cc:Work></rdf:RDF></metadata><defs
     id="defs9" /><g
     id="g4"><path
       style="fill:#666666;fill-opacity:1"
       id="path2"
       d="m 495.25905,199.019 h -21.226 v -65.816 c 0,-0.398 -0.063,-0.799 -0.116,-1.202 -0.021,-2.534 -0.827,-5.023 -2.562,-6.995 L 365.15805,3.694 c -0.032,-0.031 -0.063,-0.042 -0.085,-0.076 -0.633,-0.707 -1.371,-1.295 -2.151,-1.804 -0.231,-0.155 -0.464,-0.285 -0.706,-0.419 -0.676,-0.369 -1.393,-0.675 -2.131,-0.896 -0.2,-0.056 -0.38,-0.138 -0.58,-0.19 -0.802,-0.19 -1.635,-0.309 -2.479,-0.309 H 96.033049 c -11.918,0 -21.6,9.693 -21.6,21.601 v 177.413 h -21.223 c -17.049,0 -22.873,5.818 -22.873,22.873 v 176.545 c 0,17.043 5.824,22.87 22.873,22.87 h 21.224 V 529.2 c 0,11.907 9.682,21.601 21.6,21.601 H 452.43405 c 11.907,0 21.6,-9.693 21.6,-21.601 V 421.302 h 21.226 c 17.044,0 22.871,-5.827 22.871,-22.87 v -176.54 c -10e-4,-17.054 -5.828,-22.873 -22.872,-22.873 z M 96.033049,21.605 H 346.22605 v 110.513 c 0,5.967 4.841,10.8 10.8,10.8 h 95.407 v 56.108 H 96.033049 Z M 452.43405,529.353 H 96.033049 V 421.302 H 452.43305 v 108.051 z" /><g
       id="text34"
       style="font-style:normal;font-variant:normal;font-weight:normal;font-stretch:normal;font-size:161.4077301px;line-height:1.25;font-family:'小塚ゴシック Pro';-inkscape-font-specification:'小塚ゴシック Pro';letter-spacing:0px;word-spacing:0.9963823px;fill:#ffffff;fill-opacity:1;stroke:none;stroke-width:4.63942957"
       transform="scale(1.0152067,0.98502107)"
       aria-label="HTML"><path
         id="path5415"
         style="font-style:normal;font-variant:normal;font-weight:bold;font-stretch:normal;font-size:161.4077301px;font-family:'小塚ゴシック Pr6N';-inkscape-font-specification:'小塚ゴシック Pr6N Bold';letter-spacing:-0.08380786px;word-spacing:0px;stroke-width:4.63942957"
         d="M 159.63702,250.36732 H 135.74868 V 299.9195 H 93.459851 V 250.36732 H 69.571507 v 124.12255 h 23.888344 v -53.42596 h 42.288829 v 53.42596 h 23.88834 z" /><path
         id="path5417"
         style="font-style:normal;font-variant:normal;font-weight:bold;font-stretch:normal;font-size:161.4077301px;font-family:'小塚ゴシック Pr6N';-inkscape-font-specification:'小塚ゴシック Pr6N Bold';letter-spacing:-0.08380786px;word-spacing:0px;stroke-width:4.63942957"
         d="m 258.97785,250.36732 h -85.06187 v 20.66019 h 30.50606 v 103.46236 h 23.88835 V 271.02751 h 30.66746 z" /><path
         id="path5419"
         style="font-style:normal;font-variant:normal;font-weight:bold;font-stretch:normal;font-size:161.4077301px;font-family:'小塚ゴシック Pr6N';-inkscape-font-specification:'小塚ゴシック Pr6N Bold';letter-spacing:-0.08380786px;word-spacing:0px;stroke-width:4.63942957"
         d="m 386.04047,250.36732 h -29.37621 l -14.04247,46.64684 c -4.1966,14.84951 -7.90898,29.86043 -10.81432,43.74149 h -0.48422 c -2.74393,-14.20388 -6.2949,-28.73057 -10.3301,-43.74149 L 307.59631,250.36732 H 278.0587 l -8.3932,124.12255 h 21.79004 l 2.42112,-47.77669 c 0.80703,-15.33373 1.61407,-33.73422 1.93689,-49.39077 h 0.48422 c 2.90534,15.17233 6.77913,31.95874 10.81432,46.00121 l 13.71966,49.39076 h 18.07766 l 15.17233,-50.1978 c 4.1966,-13.88107 8.71602,-30.34465 12.26699,-45.19417 h 0.48422 c -0.16141,15.65655 0.64563,32.44296 1.29126,48.90655 l 2.25971,48.26091 h 22.75849 z" /><path
         id="path5421"
         style="font-style:normal;font-variant:normal;font-weight:bold;font-stretch:normal;font-size:161.4077301px;font-family:'小塚ゴシック Pr6N';-inkscape-font-specification:'小塚ゴシック Pr6N Bold';letter-spacing:-0.08380786px;word-spacing:0px;stroke-width:4.63942957"
         d="M 482.16323,354.3139 H 437.7761 V 250.36732 h -23.88834 v 124.12255 h 68.27547 z" /></g><flowRoot
       style="fill:black;fill-opacity:1;stroke:none;font-family:sans-serif;font-style:normal;font-weight:normal;font-size:40px;line-height:1.25;letter-spacing:0px;word-spacing:0px"
       id="flowRoot36"
       xml:space="preserve"><flowRegion
         id="flowRegion38"><rect
           y="310.40906"
           x="46.678055"
           height="63.015373"
           width="46.678055"
           id="rect40" /></flowRegion><flowPara
         id="flowPara42"></flowPara></flowRoot></g></svg>