<?xml version="1.0" encoding="UTF-8" standalone="no"?>
<svg
   xmlns:dc="http://purl.org/dc/elements/1.1/"
   xmlns:cc="http://creativecommons.org/ns#"
   xmlns:rdf="http://www.w3.org/1999/02/22-rdf-syntax-ns#"
   xmlns:svg="http://www.w3.org/2000/svg"
   xmlns="http://www.w3.org/2000/svg"
   xml:space="preserve"
   style="enable-background:new 0 0 550.801 550.801;"
   viewBox="0 0 550.801 550.801"
   height="550.801px"
   width="550.801px"
   y="0px"
   x="0px"
   id="Capa_1"
   version="1.1"><metadata
     id="metadata11"><rdf:RDF><cc:Work
         rdf:about=""><dc:format>image/svg+xml</dc:format><dc:type
           rdf:resource="http://purl.org/dc/dcmitype/StillImage" /><dc:title></dc:title></cc:Work></rdf:RDF></metadata><defs
     id="defs9" /><g
     id="g4"><path
       style="fill:#559b95;fill-opacity:1"
       id="path2"
       d="m 495.25905,199.019 h -21.226 v -65.816 c 0,-0.398 -0.063,-0.799 -0.116,-1.202 -0.021,-2.534 -0.827,-5.023 -2.562,-6.995 L 365.15805,3.694 c -0.032,-0.031 -0.063,-0.042 -0.085,-0.076 -0.633,-0.707 -1.371,-1.295 -2.151,-1.804 -0.231,-0.155 -0.464,-0.285 -0.706,-0.419 -0.676,-0.369 -1.393,-0.675 -2.131,-0.896 -0.2,-0.056 -0.38,-0.138 -0.58,-0.19 -0.802,-0.19 -1.635,-0.309 -2.479,-0.309 H 96.033049 c -11.918,0 -21.6,9.693 -21.6,21.601 v 177.413 h -21.223 c -17.049,0 -22.873,5.818 -22.873,22.873 v 176.545 c 0,17.043 5.824,22.87 22.873,22.87 h 21.224 V 529.2 c 0,11.907 9.682,21.601 21.6,21.601 H 452.43405 c 11.907,0 21.6,-9.693 21.6,-21.601 V 421.302 h 21.226 c 17.044,0 22.871,-5.827 22.871,-22.87 v -176.54 c -10e-4,-17.054 -5.828,-22.873 -22.872,-22.873 z M 96.033049,21.605 H 346.22605 v 110.513 c 0,5.967 4.841,10.8 10.8,10.8 h 95.407 v 56.108 H 96.033049 Z M 452.43405,529.353 H 96.033049 V 421.302 H 452.43305 v 108.051 z" /><g
       id="text34"
       style="font-style:normal;font-variant:normal;font-weight:normal;font-stretch:normal;font-size:173.33332825px;line-height:1.25;font-family:'小塚ゴシック Pro';-inkscape-font-specification:'小塚ゴシック Pro';letter-spacing:0px;word-spacing:1.06999993px;fill:#ffffff;fill-opacity:1;stroke:none;stroke-width:4.9822135"
       transform="scale(1.0902152,0.9172501)"
       aria-label="WAV"><path
         id="path5462"
         style="font-style:normal;font-variant:normal;font-weight:bold;font-stretch:normal;font-size:173.33332825px;font-family:'小塚ゴシック Pr6N';-inkscape-font-specification:'小塚ゴシック Pr6N Bold';letter-spacing:-0.09px;word-spacing:0px;stroke-width:4.9822135"
         d="m 187.1871,268.8657 -10.92,57.02666 c -2.77333,15.94667 -5.37333,31.02667 -7.45333,46.8 h -0.52 c -1.73334,-15.6 -4.33334,-30.33333 -7.28,-45.93333 L 149.7471,268.8657 h -25.30667 l -12.13333,57.2 c -3.46667,16.64 -6.76,32.06666 -8.66667,46.97333 h -0.52 c -1.90666,-14.21333 -4.506662,-30.68 -7.279995,-46.62667 L 85.613769,268.8657 H 58.400436 l 29.293333,133.29333 h 27.040001 l 13,-56.50667 c 3.29333,-14.04 5.72,-27.38666 7.97333,-42.46666 h 0.34667 c 1.73333,15.08 3.81333,28.6 6.76,42.46666 l 11.44,56.50667 H 181.4671 L 213.01377,268.8657 Z" /><path
         id="path5464"
         style="font-style:normal;font-variant:normal;font-weight:bold;font-stretch:normal;font-size:173.33332825px;font-family:'小塚ゴシック Pr6N';-inkscape-font-specification:'小塚ゴシック Pr6N Bold';letter-spacing:-0.09px;word-spacing:0px;stroke-width:4.9822135"
         d="m 287.12127,268.8657 h -32.24 l -37.78666,133.29333 h 26 l 9.18666,-35.18667 h 35.70667 l 9.53333,35.18667 h 26.86667 z m -31.2,78.69333 7.97334,-30.50667 c 1.90666,-7.8 4.16,-18.72 5.89333,-27.04 h 0.52 c 1.73333,8.14667 3.98666,18.89334 6.06666,27.21334 l 7.97334,30.33333 z" /><path
         id="path5466"
         style="font-style:normal;font-variant:normal;font-weight:bold;font-stretch:normal;font-size:173.33332825px;font-family:'小塚ゴシック Pr6N';-inkscape-font-specification:'小塚ゴシック Pr6N Bold';letter-spacing:-0.09px;word-spacing:0px;stroke-width:4.9822135"
         d="m 405.73211,268.8657 -15.42667,58.93333 c -4.16,15.6 -8.14666,31.89333 -11.09333,47.84 h -0.52 c -2.77333,-16.12 -6.76,-32.06667 -10.74667,-47.84 l -15.08,-58.93333 h -28.08 l 38.65334,133.29333 h 29.29333 l 40.56,-133.29333 z" /></g><flowRoot
       style="fill:black;fill-opacity:1;stroke:none;font-family:sans-serif;font-style:normal;font-weight:normal;font-size:40px;line-height:1.25;letter-spacing:0px;word-spacing:0px"
       id="flowRoot36"
       xml:space="preserve"><flowRegion
         id="flowRegion38"><rect
           y="310.40906"
           x="46.678055"
           height="63.015373"
           width="46.678055"
           id="rect40" /></flowRegion><flowPara
         id="flowPara42"></flowPara></flowRoot></g></svg>