<?xml version="1.0" encoding="UTF-8" standalone="no"?>
<svg
   xmlns:dc="http://purl.org/dc/elements/1.1/"
   xmlns:cc="http://creativecommons.org/ns#"
   xmlns:rdf="http://www.w3.org/1999/02/22-rdf-syntax-ns#"
   xmlns:svg="http://www.w3.org/2000/svg"
   xmlns="http://www.w3.org/2000/svg"
   xml:space="preserve"
   style="enable-background:new 0 0 550.801 550.801;"
   viewBox="0 0 550.801 550.801"
   height="550.801px"
   width="550.801px"
   y="0px"
   x="0px"
   id="Capa_1"
   version="1.1"><metadata
     id="metadata11"><rdf:RDF><cc:Work
         rdf:about=""><dc:format>image/svg+xml</dc:format><dc:type
           rdf:resource="http://purl.org/dc/dcmitype/StillImage" /><dc:title></dc:title></cc:Work></rdf:RDF></metadata><defs
     id="defs9" /><g
     id="g4"><path
       style="fill:#4f9c95;fill-opacity:1"
       id="path2"
       d="m 495.25905,199.019 h -21.226 v -65.816 c 0,-0.398 -0.063,-0.799 -0.116,-1.202 -0.021,-2.534 -0.827,-5.023 -2.562,-6.995 L 365.15805,3.694 c -0.032,-0.031 -0.063,-0.042 -0.085,-0.076 -0.633,-0.707 -1.371,-1.295 -2.151,-1.804 -0.231,-0.155 -0.464,-0.285 -0.706,-0.419 -0.676,-0.369 -1.393,-0.675 -2.131,-0.896 -0.2,-0.056 -0.38,-0.138 -0.58,-0.19 -0.802,-0.19 -1.635,-0.309 -2.479,-0.309 H 96.033049 c -11.918,0 -21.6,9.693 -21.6,21.601 v 177.413 h -21.223 c -17.049,0 -22.873,5.818 -22.873,22.873 v 176.545 c 0,17.043 5.824,22.87 22.873,22.87 h 21.224 V 529.2 c 0,11.907 9.682,21.601 21.6,21.601 H 452.43405 c 11.907,0 21.6,-9.693 21.6,-21.601 V 421.302 h 21.226 c 17.044,0 22.871,-5.827 22.871,-22.87 v -176.54 c -10e-4,-17.054 -5.828,-22.873 -22.872,-22.873 z M 96.033049,21.605 H 346.22605 v 110.513 c 0,5.967 4.841,10.8 10.8,10.8 h 95.407 v 56.108 H 96.033049 Z M 452.43405,529.353 H 96.033049 V 421.302 H 452.43305 v 108.051 z" /><g
       id="text34"
       style="font-style:normal;font-variant:normal;font-weight:normal;font-stretch:normal;font-size:173.33332825px;line-height:1.25;font-family:'小塚ゴシック Pro';-inkscape-font-specification:'小塚ゴシック Pro';letter-spacing:0px;word-spacing:1.06999993px;fill:#ffffff;fill-opacity:1;stroke:none;stroke-width:4.9822135"
       transform="scale(1.0902152,0.9172501)"
       aria-label="MP4"><path
         id="path5067"
         style="font-style:normal;font-variant:normal;font-weight:bold;font-stretch:normal;font-size:173.33332825px;font-family:'小塚ゴシック Pr6N';-inkscape-font-specification:'小塚ゴシック Pr6N Bold';letter-spacing:-0.09px;word-spacing:0px;stroke-width:4.9822135"
         d="m 213.63563,268.8657 h -31.54667 l -15.08,50.09333 c -4.50666,15.94667 -8.49333,32.06667 -11.61333,46.97333 h -0.52 c -2.94667,-15.25333 -6.76,-30.85333 -11.09333,-46.97333 L 129.39563,268.8657 H 97.675632 L 88.662299,402.15903 H 112.0623 l 2.6,-51.30667 c 0.86667,-16.46666 1.73333,-36.22666 2.08,-53.04 h 0.52 c 3.12,16.29334 7.28,34.32 11.61333,49.4 l 14.73333,53.04 h 19.41334 l 16.29333,-53.90666 c 4.50667,-14.90667 9.36,-32.58667 13.17333,-48.53334 h 0.52 c -0.17333,16.81334 0.69334,34.84 1.38667,52.52 l 2.42667,51.82667 h 24.44 z" /><path
         id="path5069"
         style="font-style:normal;font-variant:normal;font-weight:bold;font-stretch:normal;font-size:173.33332825px;font-family:'小塚ゴシック Pr6N';-inkscape-font-specification:'小塚ゴシック Pr6N Bold';letter-spacing:-0.09px;word-spacing:0px;stroke-width:4.9822135"
         d="m 243.54043,402.15903 h 25.48 v -49.92 c 2.6,0.52 5.72,0.69333 9.36,0.69333 19.93333,0 50.44,-8.14666 50.44,-44.72 0,-12.30666 -4.85334,-23.05333 -12.82667,-29.81333 -8.49333,-7.28 -21.14667,-10.57333 -37.96,-10.57333 -14.73333,0 -26.17333,1.21333 -34.49333,2.77333 z m 25.48,-113.36 c 2.25333,-0.52 5.89333,-1.04 11.09333,-1.04 14.21333,0 23.22667,7.45333 23.22667,21.66667 0,14.38666 -9.36,23.4 -25.30667,23.4 -3.81333,0 -6.58667,-0.17334 -9.01333,-0.69334 z" /><path
         id="path5071"
         style="font-style:normal;font-variant:normal;font-weight:bold;font-stretch:normal;font-size:173.33332825px;font-family:'小塚ゴシック Pr6N';-inkscape-font-specification:'小塚ゴシック Pr6N Bold';letter-spacing:-0.09px;word-spacing:0px;stroke-width:4.9822135"
         d="m 414.80938,369.74569 h 15.08 v -19.41333 h -15.08 v -79.21333 h -28.94667 l -47.66666,81.98667 v 16.63999 h 52.86666 v 32.41334 h 23.74667 z m -53.73333,-19.75999 19.24,-32.93334 c 3.98666,-7.45333 7.10666,-14.73333 11.09333,-23.05333 h 0.69333 c -0.52,7.8 -1.04,16.12 -1.04,23.74667 v 32.58666 h -29.98666 z" /></g><flowRoot
       style="fill:black;fill-opacity:1;stroke:none;font-family:sans-serif;font-style:normal;font-weight:normal;font-size:40px;line-height:1.25;letter-spacing:0px;word-spacing:0px"
       id="flowRoot36"
       xml:space="preserve"><flowRegion
         id="flowRegion38"><rect
           y="310.40906"
           x="46.678055"
           height="63.015373"
           width="46.678055"
           id="rect40" /></flowRegion><flowPara
         id="flowPara42"></flowPara></flowRoot></g></svg>