<?xml version="1.0" encoding="UTF-8" standalone="no"?>
<svg
   xmlns:dc="http://purl.org/dc/elements/1.1/"
   xmlns:cc="http://creativecommons.org/ns#"
   xmlns:rdf="http://www.w3.org/1999/02/22-rdf-syntax-ns#"
   xmlns:svg="http://www.w3.org/2000/svg"
   xmlns="http://www.w3.org/2000/svg"
   xml:space="preserve"
   style="enable-background:new 0 0 550.801 550.801;"
   viewBox="0 0 550.801 550.801"
   height="550.801px"
   width="550.801px"
   y="0px"
   x="0px"
   id="Capa_1"
   version="1.1"><metadata
     id="metadata11"><rdf:RDF><cc:Work
         rdf:about=""><dc:format>image/svg+xml</dc:format><dc:type
           rdf:resource="http://purl.org/dc/dcmitype/StillImage" /><dc:title></dc:title></cc:Work></rdf:RDF></metadata><defs
     id="defs9" /><g
     id="g4"><path
       style="fill:#559b95;fill-opacity:1"
       id="path2"
       d="m 495.25905,199.019 h -21.226 v -65.816 c 0,-0.398 -0.063,-0.799 -0.116,-1.202 -0.021,-2.534 -0.827,-5.023 -2.562,-6.995 L 365.15805,3.694 c -0.032,-0.031 -0.063,-0.042 -0.085,-0.076 -0.633,-0.707 -1.371,-1.295 -2.151,-1.804 -0.231,-0.155 -0.464,-0.285 -0.706,-0.419 -0.676,-0.369 -1.393,-0.675 -2.131,-0.896 -0.2,-0.056 -0.38,-0.138 -0.58,-0.19 -0.802,-0.19 -1.635,-0.309 -2.479,-0.309 H 96.033049 c -11.918,0 -21.6,9.693 -21.6,21.601 v 177.413 h -21.223 c -17.049,0 -22.873,5.818 -22.873,22.873 v 176.545 c 0,17.043 5.824,22.87 22.873,22.87 h 21.224 V 529.2 c 0,11.907 9.682,21.601 21.6,21.601 H 452.43405 c 11.907,0 21.6,-9.693 21.6,-21.601 V 421.302 h 21.226 c 17.044,0 22.871,-5.827 22.871,-22.87 v -176.54 c -10e-4,-17.054 -5.828,-22.873 -22.872,-22.873 z M 96.033049,21.605 H 346.22605 v 110.513 c 0,5.967 4.841,10.8 10.8,10.8 h 95.407 v 56.108 H 96.033049 Z M 452.43405,529.353 H 96.033049 V 421.302 H 452.43305 v 108.051 z" /><g
       id="text34"
       style="font-style:normal;font-variant:normal;font-weight:normal;font-stretch:normal;font-size:165.1552124px;line-height:1.25;font-family:'小塚ゴシック Pro';-inkscape-font-specification:'小塚ゴシック Pro';letter-spacing:0px;word-spacing:1.01951575px;fill:#ffffff;fill-opacity:1;stroke:none;stroke-width:4.74714565"
       transform="scale(1.0387773,0.96267025)"
       aria-label="WMV"><path
         id="path5746"
         style="font-style:normal;font-variant:normal;font-weight:bold;font-stretch:normal;font-size:165.1552124px;font-family:'小塚ゴシック Pr6N';-inkscape-font-specification:'小塚ゴシック Pr6N Bold';letter-spacing:-0.08575367px;word-spacing:0px;stroke-width:4.74714565"
         d="m 185.92784,256.18024 -10.40478,54.33607 c -2.64248,15.19428 -5.11981,29.56278 -7.10167,44.5919 h -0.49547 c -1.65155,-14.86396 -4.12888,-28.90216 -6.93651,-43.76613 l -10.73509,-55.16184 h -24.11266 l -11.56087,54.50122 c -3.3031,15.8549 -6.44105,30.55372 -8.25776,44.75707 h -0.49546 c -1.81671,-13.54273 -4.29404,-29.23248 -6.936524,-44.42676 L 89.146889,256.18024 H 63.21752 L 91.128751,383.1846 h 25.764209 l 12.38665,-53.8406 c 3.13794,-13.37757 5.45012,-26.09452 7.59713,-40.46303 h 0.33032 c 1.65155,14.36851 3.63341,27.25061 6.44105,40.46303 l 10.90024,53.8406 h 25.92937 l 30.05825,-127.00436 z" /><path
         id="path5748"
         style="font-style:normal;font-variant:normal;font-weight:bold;font-stretch:normal;font-size:165.1552124px;font-family:'小塚ゴシック Pr6N';-inkscape-font-specification:'小塚ゴシック Pr6N Bold';letter-spacing:-0.08575367px;word-spacing:0px;stroke-width:4.74714565"
         d="M 340.89444,256.18024 H 310.8362 l -14.36851,47.72986 c -4.29403,15.19428 -8.0926,30.55371 -11.0654,44.75706 h -0.49546 c -2.80764,-14.53366 -6.44106,-29.39763 -10.56994,-44.75706 l -13.70788,-47.72986 h -30.2234 l -8.58807,127.00436 h 22.29595 l 2.47733,-48.88594 c 0.82577,-15.68975 1.65155,-34.51744 1.98186,-50.5375 h 0.49547 c 2.97279,15.52459 6.93652,32.70074 11.0654,47.06924 l 14.03819,50.53749 h 18.49738 l 15.52459,-51.36327 c 4.29404,-14.20335 8.91838,-31.04918 12.5518,-46.24346 h 0.49546 c -0.16515,16.02006 0.66062,33.1962 1.32125,50.04203 l 2.31217,49.38141 h 23.28688 z" /><path
         id="path5750"
         style="font-style:normal;font-variant:normal;font-weight:bold;font-stretch:normal;font-size:165.1552124px;font-family:'小塚ゴシック Pr6N';-inkscape-font-specification:'小塚ゴシック Pr6N Bold';letter-spacing:-0.08575367px;word-spacing:0px;stroke-width:4.74714565"
         d="m 435.45037,256.18024 -14.69881,56.15277 c -3.96373,14.86397 -7.7623,30.38856 -10.56993,45.58284 h -0.49547 c -2.64248,-15.35943 -6.44105,-30.55371 -10.23962,-45.58284 L 385.07803,256.18024 H 358.32289 L 395.1525,383.1846 h 27.91123 l 38.64632,-127.00436 z" /></g><flowRoot
       style="fill:black;fill-opacity:1;stroke:none;font-family:sans-serif;font-style:normal;font-weight:normal;font-size:40px;line-height:1.25;letter-spacing:0px;word-spacing:0px"
       id="flowRoot36"
       xml:space="preserve"><flowRegion
         id="flowRegion38"><rect
           y="310.40906"
           x="46.678055"
           height="63.015373"
           width="46.678055"
           id="rect40" /></flowRegion><flowPara
         id="flowPara42"></flowPara></flowRoot></g></svg>