<svg width="397" height="47" viewBox="0 0 397 47" fill="none" xmlns="http://www.w3.org/2000/svg">
<g clip-path="url(#clip0_1640_6838)">
<path d="M46.5196 15.1836C45.4493 13.2359 43.8438 11.8781 41.76 11.0942C40.1707 10.4961 38.5247 10.3264 36.8381 10.4072C36.2381 10.4396 35.6381 10.5123 35.0543 10.5689C33.9191 2.76188 29.0297 0.749512 24.562 0.749512C20.0942 0.749512 15.2048 2.76188 14.0777 10.5608C13.4939 10.5042 12.8939 10.4315 12.2939 10.3992C10.6073 10.3103 8.9613 10.4881 7.37204 11.0861C5.28817 11.8701 3.67459 13.2359 2.61238 15.1755C1.24205 17.6728 0.577161 20.3317 1.18529 23.1684C1.8664 26.3445 3.9746 28.4054 6.74769 29.8924C7.05581 30.0541 7.37204 30.1915 7.7207 30.3612C7.63962 30.5228 7.57475 30.6845 7.50178 30.8299C6.64228 32.5756 6.13956 34.4102 6.13145 36.366C6.11523 38.8794 6.97473 41.0453 8.71804 42.8475C10.2749 44.4639 12.1236 45.6519 14.3048 46.2419C17.0454 46.9854 19.5996 46.4359 21.9186 44.868C22.8024 44.2699 24.5295 42.6455 24.5782 42.5889C24.6268 42.6455 26.3539 44.2699 27.2377 44.868C29.5568 46.4359 32.1028 46.9773 34.8516 46.2419C37.0327 45.6519 38.8815 44.4639 40.4383 42.8475C42.1735 41.0453 43.0411 38.8794 43.0249 36.366C43.0087 34.4102 42.5059 32.5756 41.6546 30.8299C41.5816 30.6764 41.5086 30.5228 41.4356 30.3612C41.7843 30.1915 42.1005 30.0541 42.4086 29.8924C45.1817 28.4054 47.2899 26.3445 47.971 23.1684C48.5792 20.3317 47.9143 17.6809 46.544 15.1836H46.5196ZM42.6681 27.8397C42.1654 28.5105 41.5492 29.1085 40.941 29.6985C40.7221 29.9086 40.6816 30.0702 40.7383 30.345C41.2735 32.6968 41.2005 35.0163 40.2842 37.263C38.7031 41.1504 34.7137 43.6638 30.5054 43.4779C28.4702 43.389 26.5972 42.7667 24.8539 41.7484C24.6187 41.611 24.4971 41.611 24.2619 41.7484C22.5186 42.7667 20.6456 43.389 18.6104 43.4779C14.394 43.6719 10.4046 41.1504 8.83156 37.263C7.91531 35.0163 7.85044 32.6968 8.37749 30.345C8.44236 30.0702 8.3937 29.9086 8.17478 29.6985C7.56664 29.1085 6.9504 28.5105 6.44768 27.8397C3.76378 24.2594 3.30971 20.4206 5.45034 16.4524C7.28285 13.05 10.4046 11.5629 14.1264 11.1346C14.4102 11.1023 14.5805 11.0376 14.694 10.7548C15.1886 9.55058 15.894 8.48378 16.7373 7.48972C18.7806 5.07327 21.6672 3.82867 24.5538 3.82867C27.4405 3.82867 30.3271 5.06519 32.3704 7.48972C33.2056 8.48378 33.9191 9.55866 34.4137 10.7548C34.5353 11.0376 34.6975 11.1023 34.9813 11.1346C38.7031 11.5629 41.8167 13.05 43.6573 16.4524C45.798 20.4206 45.3439 24.2594 42.66 27.8397H42.6681Z" fill="#8A0021"/>
<path d="M28.0161 27.8076V28.737H28.4621C29.9054 28.737 31.3487 28.737 32.7839 28.737C33.4488 28.737 33.7488 29.028 33.7569 29.6907C33.7569 31.3717 33.7569 33.0446 33.7569 34.7256C33.7569 35.3641 33.465 35.655 32.8163 35.655C27.3755 35.655 21.9348 35.655 16.4859 35.655C15.8453 35.655 15.5615 35.3883 15.5615 34.758C15.5615 33.0527 15.5615 31.3474 15.5615 29.6422C15.5615 29.0118 15.8534 28.7451 16.4859 28.737C17.9373 28.737 19.3968 28.737 20.8482 28.737H21.3104V27.8076H20.8888C19.4374 27.8076 17.9778 27.8076 16.5264 27.8076C15.9102 27.8076 15.5777 27.5247 15.5777 27.0156C15.5777 26.5388 15.9183 26.2397 16.5102 26.2397C21.951 26.2397 27.3917 26.2397 32.8406 26.2397C33.4488 26.2397 33.7893 26.5469 33.7812 27.0479C33.7812 27.5328 33.4325 27.8076 32.8487 27.8076C31.3973 27.8076 29.9378 27.8076 28.4864 27.8076H28.0242H28.0161ZM32.1433 32.8668C31.3568 32.8668 30.6189 32.8668 29.881 32.8668C28.2675 32.8668 27.1404 32.091 26.5971 30.5797C26.5241 30.3776 26.4268 30.313 26.2241 30.313C25.2025 30.321 24.1808 30.321 23.151 30.313C22.9402 30.313 22.8429 30.3776 22.7699 30.5716C22.2267 32.091 21.1077 32.8668 19.486 32.8668C18.7238 32.8668 17.9535 32.8668 17.1265 32.8668C17.1265 33.1658 17.1265 33.4325 17.1265 33.6992C17.1265 33.9983 17.2075 34.0952 17.5157 34.0952C18.7644 34.0952 19.9968 34.0952 21.2293 34.0952C21.505 34.0952 21.5861 33.9821 21.6429 33.7396C21.9834 32.2849 23.224 31.2989 24.6997 31.2989C26.1674 31.2989 27.4242 32.293 27.7566 33.7477C27.8134 34.0144 27.9107 34.0952 28.1783 34.0952C29.3864 34.0872 30.6027 34.0952 31.8109 34.0952H32.1433V32.8749V32.8668ZM21.1888 30.313H17.9535C17.1751 30.313 17.1427 30.313 17.1427 31.1858C17.1427 31.2666 17.1589 31.2666 17.1832 31.2666H20.0212C20.5239 31.2343 20.9212 30.8706 21.1888 30.313ZM28.1702 30.3291C28.454 30.8787 28.8513 31.2262 29.3864 31.2585C30.2946 31.3151 31.2027 31.2747 32.1271 31.2747V30.3291H28.1702ZM22.9402 28.7047H26.4025V27.8238H22.9402V28.7047ZM23.1997 34.0468H26.1755C26.0376 33.3517 25.47 32.883 24.7646 32.8668C23.9781 32.8426 23.3781 33.2871 23.1916 34.0468H23.1997Z" fill="#8A0021"/>
<path d="M21.0913 17.1883C21.9994 17.1883 22.8589 17.1883 23.7184 17.1883C24.2779 17.1883 24.6185 17.5681 24.5455 18.0853C24.4968 18.4814 24.1725 18.74 23.6698 18.7481C22.9805 18.7642 22.2994 18.7481 21.6102 18.7481C21.4643 18.7481 21.3183 18.7481 21.0994 18.7481C21.0994 18.7481 21.0994 19.6209 21.0994 20.0573C21.0994 20.122 21.1399 20.2513 21.4399 20.2513C22.1778 20.2513 22.9238 20.2513 23.6617 20.2593C24.1644 20.2593 24.4887 20.518 24.5455 20.914C24.6103 21.3989 24.3022 21.7868 23.8076 21.8272C23.5562 21.8434 23.2968 21.8272 23.0211 21.8272V23.9689C23.2562 23.9689 23.4671 23.9527 23.6779 23.9689C24.1806 24.0093 24.4968 24.3487 24.4725 24.8013C24.4482 25.2377 24.1157 25.5287 23.6211 25.5287C21.2372 25.5287 18.8533 25.5287 16.4695 25.5287C15.9019 25.5287 15.6019 25.2216 15.5938 24.6558C15.5938 21.4312 15.5938 18.2147 15.5938 14.99C15.5938 14.4162 15.8938 14.1172 16.4614 14.1172C18.8858 14.1172 21.3102 14.1172 23.7346 14.1172C24.2374 14.1172 24.5941 14.4324 24.6103 14.8688C24.6185 15.3295 24.2698 15.6446 23.7265 15.6446C22.9724 15.6446 22.2184 15.6527 21.4643 15.6446C21.1805 15.6446 21.0913 15.7335 21.0913 16.0164C21.0913 16.4124 21.0913 16.9781 21.0913 17.1721V17.1883ZM17.1911 15.6851V17.1559H19.5263V15.6851H17.1911ZM19.5345 18.7804H17.1911V20.2351H19.5345V18.7804ZM19.8993 21.8595V23.9446H21.3832V21.8595H19.8993ZM17.1911 21.8595V23.9366H18.2776V21.8595H17.1911Z" fill="#8A0021"/>
<path d="M31.9164 15.9841C32.0543 15.9841 32.1516 15.9841 32.1516 15.7982C32.1516 15.6285 32.0624 15.58 31.884 15.58C30.1326 15.58 28.3812 15.58 26.6297 15.5881C26.5892 15.5881 26.4676 15.5881 26.4676 15.6689V16.0649C26.4676 16.9216 26.4676 17.7863 26.4676 18.643C26.4676 19.2006 26.127 19.5724 25.6648 19.5643C25.2108 19.5481 24.8945 19.1844 24.8945 18.6591C24.8945 17.4065 24.8945 16.1619 24.8945 14.9092C24.8945 14.3354 25.1945 14.0444 25.7702 14.0444C28.1298 14.0444 30.4894 14.0444 32.8408 14.0444C33.4003 14.0444 33.6841 14.3111 33.7003 14.8849C33.7165 15.4911 33.7165 16.0972 33.7003 16.6953C33.6841 17.261 33.4084 17.5196 32.8327 17.5196C31.5678 17.5196 30.1407 17.5196 28.8758 17.5196C28.746 17.5196 28.5596 17.56 28.5596 17.7055C28.5596 17.851 28.7785 17.8914 28.9082 17.8914C30.1731 17.8914 31.6002 17.8914 32.8651 17.8914C33.4571 17.8914 33.7814 18.1742 33.7814 18.6672C33.7814 19.1521 33.4408 19.435 32.857 19.435C31.2029 19.435 29.5407 19.435 27.8865 19.435C27.2541 19.435 26.9865 19.1602 26.9784 18.5217C26.9784 17.956 26.9784 17.3903 26.9784 16.8326C26.9784 16.2831 27.2703 15.9921 27.8298 15.9841C29.1109 15.9841 31.7705 15.9841 31.9164 15.9841Z" fill="#8A0021"/>
<path d="M24.9667 23.7987C26.0856 24.2432 27.0911 23.9765 28.0722 23.2653C27.1073 22.8693 26.1586 22.7158 25.0964 22.8289C25.4856 22.3117 25.9559 22.1258 26.4748 22.0207C27.3749 21.8429 28.2425 21.9965 29.102 22.2632C29.3615 22.344 29.5561 22.3198 29.7588 22.142C30.0182 21.9157 30.302 21.7055 30.675 21.4065C30.4156 21.3904 30.2858 21.3823 30.148 21.3823C28.8182 21.3823 27.4803 21.3823 26.1505 21.3823C26.0046 21.3823 25.8505 21.3823 25.7045 21.3661C25.2505 21.3257 24.9586 20.9943 24.9748 20.566C24.991 20.1377 25.3072 19.8386 25.7694 19.8306C27.6181 19.8306 29.4588 19.8306 31.3075 19.8306C31.8589 19.8306 32.4102 19.8306 32.9616 19.8306C33.3103 19.8306 33.5616 19.976 33.6995 20.2831C33.8454 20.6145 33.7806 20.9216 33.5211 21.1641C32.8886 21.7459 32.2481 22.3198 31.6156 22.9016C31.5264 22.9825 31.4372 23.0633 31.3318 23.1603C32.3697 23.8553 33.5049 24.4453 33.8211 25.8596C33.2941 25.8596 32.8481 25.8757 32.4102 25.8515C32.2967 25.8515 32.1751 25.7464 32.0778 25.6737C31.5021 25.2373 30.9264 24.8009 30.3507 24.3564C30.1318 24.1866 29.9534 24.1947 29.7101 24.3564C28.9074 24.914 28.0722 25.4393 27.083 25.6495C25.8424 25.9081 24.918 25.0999 24.9667 23.7906V23.7987Z" fill="#8A0021"/>
<path d="M26.1992 40.0355C29.0858 40.3264 31.7697 39.7688 34.1455 38.0554C36.5213 36.3421 37.8835 33.9984 38.4105 31.1455C38.5322 34.4186 37.4456 37.1503 34.6888 39.0657C32.0454 40.9083 29.1912 41.175 26.1992 40.0436V40.0355Z" fill="#8A0021"/>
<path d="M32.208 11.7246C30.3592 8.98484 27.8132 7.56245 24.5698 7.59478C21.3264 7.56245 18.7804 8.99293 16.9316 11.7246C19.0966 9.82535 21.5859 8.71815 24.5698 8.71815C27.5537 8.71815 30.043 9.82535 32.208 11.7246Z" fill="#8A0021"/>
<path d="M39.5051 28.2198C40.7781 25.5448 41.0781 22.8454 40.2186 20.0653C39.351 17.269 37.5591 15.2324 34.9238 13.8262C37.3158 14.2707 40.0808 16.283 41.1511 19.2491C42.3755 22.6353 41.4673 26.1186 39.5051 28.2198Z" fill="#8A0021"/>
<path d="M22.9324 40.0355C20.0458 40.3264 17.3619 39.7688 14.9861 38.0554C12.6103 36.3421 11.2481 33.9984 10.721 31.1455C10.5994 34.4186 11.6859 37.1503 14.4428 39.0657C17.0862 40.9083 19.9403 41.175 22.9324 40.0436V40.0355Z" fill="#8A0021"/>
<path d="M9.62585 28.2198C8.35282 25.5448 8.05281 22.8454 8.91231 20.0653C9.77991 17.269 11.5719 15.2324 14.2071 13.8262C11.8151 14.2707 9.05015 16.283 7.97983 19.2491C6.75546 22.6353 7.6636 26.1186 9.62585 28.2198Z" fill="#8A0021"/>
<path d="M61.577 40.2779L64.3582 43.5429C64.9907 44.2865 65.4286 44.4804 65.761 44.5855C65.907 44.634 66.0934 44.6986 66.0934 44.8441C66.0934 45.0623 65.9313 45.0946 65.4853 45.1512C65.2745 45.1755 64.9177 45.2159 64.4799 45.2159C63.969 45.2159 63.6609 45.1997 63.3285 44.7956C62.7852 44.1491 61.3257 42.169 60.4581 40.981L60.1337 41.2154V43.9955C60.1337 44.2056 60.1743 44.4885 60.4175 44.5936C60.604 44.6825 60.6689 44.7067 60.6689 44.8441C60.6689 45.1189 60.3608 45.1431 60.1743 45.1431H58.958C58.6499 45.1431 58.4877 45.1027 58.4877 44.7714C58.4877 44.5693 58.5526 43.5914 58.5526 43.3732C58.5769 42.6539 58.5769 38.411 58.5769 37.8049C58.5769 37.2391 58.5769 37.2068 58.1553 37.1826C57.7742 37.1664 57.6201 37.1583 57.6201 36.9078C57.6201 36.6573 57.8472 36.5764 58.0418 36.5764H59.6553C59.8905 36.5764 60.2229 36.6007 60.2229 36.9886C60.2229 37.126 60.1337 37.7887 60.1337 37.9423V40.383C62.6555 37.9342 62.8663 37.6594 63.5636 36.8027C63.7339 36.5926 63.7988 36.5684 64.2447 36.5684C65.1772 36.5684 65.388 36.5684 65.388 36.8431C65.388 36.9644 65.3475 37.0048 65.1042 37.1745C64.942 37.2876 64.9096 37.32 64.5934 37.6109L61.577 40.286V40.2779Z" fill="#8A0021"/>
<path d="M69.1505 42.0475C68.9884 42.5081 68.3802 44.1406 68.2911 44.3588C67.9586 45.1751 67.9586 45.1913 67.3505 45.1913C67.1396 45.1913 66.6045 45.1913 66.6045 44.9327C66.6045 44.8195 66.645 44.7629 66.7991 44.5124C66.9126 44.3023 67.0748 43.9548 67.2937 43.4375C69.0046 39.5502 69.3533 38.54 69.9614 36.7216C70.156 36.2851 70.7317 36.2124 70.9425 36.2124C71.5912 36.2124 71.6966 36.5114 71.9723 37.1903C72.6291 38.8713 73.2858 40.5442 73.9589 42.2253C74.7697 44.2295 74.8508 44.4558 75.1265 44.6094C75.3373 44.7064 75.4022 44.7306 75.4022 44.8438C75.4022 45.1428 75.2076 45.1428 73.8859 45.1428C73.4156 45.1428 73.2615 45.0943 73.1561 44.8357C72.9939 44.4558 72.4101 42.6213 72.2399 42.0475H69.1505ZM71.9804 41.4171C71.8101 40.8837 70.9344 38.2652 70.7479 37.6671C70.5776 38.2086 69.5641 40.8109 69.3857 41.4171H71.9804Z" fill="#595757"/>
<path d="M78.4345 36.5762C78.9534 36.5762 79.1318 36.6893 79.4156 37.1096C80.6481 38.928 82.1968 41.207 83.1374 42.5567C83.1374 39.8493 83.0644 37.9743 83.0482 37.8208C83.0482 37.6995 82.959 37.053 82.959 36.9075C82.959 36.6085 83.259 36.5762 83.4536 36.5762H84.3212C84.4671 36.5762 84.832 36.5923 84.832 36.8833C84.832 37.0045 84.8077 37.0207 84.5077 37.1581C84.2969 37.255 84.2725 37.2712 84.2725 38.1844C84.2725 39.0411 84.3131 43.2356 84.3131 44.173C84.3131 44.9166 84.3131 45.0055 83.9806 45.1105C83.7455 45.1994 83.3725 45.1833 83.332 45.1833C82.9833 45.1833 82.959 45.1429 82.7076 44.763C81.54 42.9769 79.5696 40.1806 78.3615 38.4269V39.1058C78.3615 39.526 78.3615 44.2135 78.3858 44.4236C78.3858 44.5206 78.402 44.7549 78.402 44.86C78.402 45.2398 77.7696 45.3045 77.4452 45.3045C77.3074 45.3045 77.0317 45.2803 77.0317 44.9489C77.0317 44.8842 77.0722 44.5367 77.0722 44.464C77.1614 42.9123 77.2587 39.3401 77.2587 38.039C77.2587 37.3601 77.2425 37.1823 76.7722 37.1823C76.5857 37.1823 76.3506 37.1823 76.3506 36.8994C76.3506 36.6489 76.5452 36.5762 76.7398 36.5762H78.4263H78.4345Z" fill="#595757"/>
<path d="M91.7725 36.6974C91.8942 36.6974 92.1942 36.7378 92.3158 37.0691C92.3401 37.158 92.5266 38.3056 92.5266 38.54C92.5266 38.8633 92.1942 38.9603 91.9266 38.9603C91.5455 38.9603 91.4401 38.8148 91.3671 38.6127C90.9698 37.5944 90.3454 36.9802 89.4211 36.9802C88.367 36.9802 88.0264 37.7318 88.0264 38.3945C88.0264 39.1946 88.7724 39.6068 89.5022 39.9058C91.3509 40.6574 93.0537 41.3525 93.0537 42.8799C93.0537 43.8336 92.3726 44.6337 91.4887 45.0054C91.0752 45.1752 90.5806 45.2883 89.6157 45.2883C87.1426 45.2883 86.2588 43.874 86.2588 43.2113C86.2588 42.7749 86.6561 42.395 87.1183 42.395C87.6859 42.395 87.7264 42.6536 87.7913 43.3002C87.8805 44.1003 88.5616 44.6579 89.5184 44.6579C90.1995 44.6579 91.3347 44.472 91.3347 43.1466C91.3347 42.1283 90.7103 41.8616 89.2103 41.1828C87.5561 40.4392 86.5426 39.9058 86.5426 38.7097C86.5426 37.2227 87.9697 36.4307 89.5265 36.4307C90.3455 36.4307 90.8887 36.6893 91.2293 36.8509C91.3185 36.8105 91.6023 36.7054 91.7725 36.7054V36.6974Z" fill="#595757"/>
<path d="M96.0617 42.0475C95.8995 42.5081 95.2914 44.1406 95.2022 44.3588C94.8697 45.1751 94.8697 45.1913 94.2616 45.1913C94.0508 45.1913 93.5156 45.1913 93.5156 44.9327C93.5156 44.8195 93.5562 44.7629 93.7102 44.5124C93.8237 44.3023 93.9859 43.9548 94.2048 43.4375C95.9157 39.5502 96.2644 38.54 96.8725 36.7216C97.0671 36.2851 97.6428 36.2124 97.8536 36.2124C98.5023 36.2124 98.6077 36.5114 98.8834 37.1903C99.5402 38.8713 100.197 40.5442 100.87 42.2253C101.681 44.2295 101.762 44.4558 102.038 44.6094C102.248 44.7064 102.313 44.7306 102.313 44.8438C102.313 45.1428 102.119 45.1428 100.797 45.1428C100.327 45.1428 100.173 45.0943 100.067 44.8357C99.9051 44.4558 99.3213 42.6213 99.151 42.0475H96.0617ZM98.8915 41.4171C98.7212 40.8837 97.8455 38.2652 97.659 37.6671C97.4888 38.2086 96.4752 40.8109 96.2968 41.4171H98.8915Z" fill="#595757"/>
<path d="M105.127 36.5684C105.524 36.5684 105.694 36.7138 105.694 37.029C105.694 37.0775 105.654 37.3119 105.654 37.3604C105.63 37.5705 105.605 37.7725 105.605 37.9584V44.0359C105.605 44.4966 105.792 44.5774 105.905 44.6178C106.027 44.6825 106.14 44.7148 106.14 44.8684C106.14 45.1674 105.905 45.1755 104.948 45.1755C104.365 45.1755 103.902 45.1755 103.902 44.731C103.902 44.6421 103.943 44.2461 103.951 44.1652C104 43.5429 104 41.0133 104 40.1809V37.4493C104 37.1987 103.829 37.1987 103.489 37.1987C103.302 37.1987 103.043 37.1987 103.043 36.9159C103.043 36.633 103.302 36.5845 103.457 36.5845H105.119L105.127 36.5684Z" fill="#595757"/>
<path d="M114.784 36.5924C115.49 36.5924 115.562 36.6894 115.976 37.5945C116.576 38.8957 117.525 41.1101 118.295 42.8639C119.049 41.0535 119.763 39.227 120.452 37.3925C120.728 36.6894 120.776 36.5601 121.498 36.5601H123.022C123.225 36.5601 123.411 36.657 123.411 36.8672C123.411 37.0854 123.136 37.15 122.949 37.1662C122.56 37.1824 122.56 37.2793 122.56 38.1683C122.56 38.9361 122.649 42.7022 122.649 43.5508C122.649 44.1569 122.674 44.5045 122.982 44.6257C123.233 44.7146 123.266 44.7227 123.266 44.8601C123.266 45.1106 123.038 45.1672 122.771 45.1672H121.652C121.028 45.1672 121.028 44.7873 121.028 44.6338C121.028 44.0034 121.092 40.4636 121.076 39.6715L121.06 38.3704C120.776 39.1624 119.025 43.6801 118.96 43.9145C118.863 44.3509 118.068 44.5045 117.744 44.5045C117.395 44.5045 117.322 44.3428 116.665 42.8962C116.365 42.2496 115.052 39.0816 114.727 38.3704C114.727 39.2836 114.735 43.7529 114.735 44.7712C114.735 45.054 114.671 45.151 114.362 45.2157C114.322 45.2318 113.965 45.3046 113.795 45.3046C113.438 45.3046 113.373 45.1348 113.373 44.957C113.373 44.6823 113.535 40.4555 113.56 39.7685C113.576 39.3564 113.608 38.3704 113.608 37.8855C113.608 37.2632 113.471 37.1824 113.098 37.1824C112.887 37.1824 112.7 37.1581 112.7 36.8995C112.7 36.6409 112.927 36.5762 113.089 36.5762H114.768L114.784 36.5924Z" fill="#8A0021"/>
<path d="M126.826 44.141C126.826 44.5208 127.15 44.5532 127.531 44.5208H128.374C129.639 44.5208 130.012 44.1895 130.41 43.7207C130.596 43.4945 130.685 43.3005 130.823 43.0257C130.888 42.9126 130.961 42.7509 131.31 42.7509C131.747 42.7509 131.747 43.0338 131.747 43.1873C131.747 43.4702 131.699 44.1895 131.537 44.634C131.423 44.9653 131.261 45.1189 130.653 45.1189H125.974C125.163 45.1189 125.163 44.6582 125.163 44.4966C125.163 44.3026 125.228 43.3328 125.236 43.1146C125.261 42.0478 125.277 40.9891 125.277 39.9223L125.261 37.7321C125.261 37.3361 125.026 37.32 124.79 37.32C124.507 37.32 124.353 37.2553 124.353 36.9724C124.353 36.6088 124.75 36.6007 124.896 36.6007C125.204 36.6007 126.712 36.6169 127.045 36.6169H129.412C129.582 36.6169 130.434 36.5684 130.62 36.5684C130.896 36.5684 131.091 36.6169 131.18 36.8189C131.293 37.1018 131.342 37.821 131.342 38.0231C131.342 38.209 131.277 38.508 130.823 38.508C130.499 38.508 130.361 38.4191 130.256 38.209C129.858 37.4654 129.72 37.223 128.901 37.223H127.101C126.939 37.223 126.826 37.2957 126.826 37.4574V40.3506C127.126 40.3506 128.585 40.3506 128.926 40.3345C129.234 40.3183 129.558 40.2698 129.915 40.0354C130.223 39.8253 130.272 39.7849 130.41 39.7849C130.637 39.7849 130.685 39.9465 130.685 40.0678C130.685 40.3749 130.539 41.1427 130.061 41.1427C129.988 41.1427 129.647 41.0699 129.574 41.0538C129.315 41.0133 128.642 41.0053 128.285 41.0053C128.074 41.0053 127.369 41.0053 127.239 41.0295C127.101 41.0538 126.818 41.1265 126.818 41.4255V44.1329L126.826 44.141Z" fill="#595757"/>
<path d="M133.588 41.2555C133.588 40.1806 133.612 38.9522 133.572 37.8773C133.556 37.4086 133.458 37.3682 133.15 37.3682C132.842 37.3682 132.591 37.3035 132.591 37.0126C132.591 36.8024 132.737 36.6166 133.077 36.6166C133.191 36.6166 133.726 36.6408 133.848 36.6408C134.358 36.6408 136.799 36.5034 137.359 36.5034C140.675 36.5034 141.826 38.5239 141.826 40.609C141.826 41.2878 141.737 43.1062 140.01 44.2619C139.013 44.9166 137.796 45.1428 136.361 45.1428C136.167 45.1428 135.218 45.1024 135.007 45.1024C134.894 45.1024 134.358 45.1428 134.237 45.1428C133.823 45.1428 133.491 45.0539 133.491 44.5206C133.491 44.3751 133.556 43.6396 133.564 43.478C133.58 43.1709 133.58 43.0577 133.58 42.1203V41.2555H133.588ZM135.161 44.0356C135.161 44.4963 135.583 44.4963 135.842 44.4963C136.84 44.4963 140.051 44.4963 140.051 40.6979C140.051 39.332 139.491 37.9258 138.161 37.4328C137.675 37.2631 137.245 37.2227 136.223 37.2227C135.704 37.2227 135.55 37.2389 135.177 37.2631C135.153 37.3278 135.153 37.4247 135.153 37.4732V44.0437L135.161 44.0356Z" fill="#595757"/>
<path d="M145.037 36.5684C145.434 36.5684 145.605 36.7138 145.605 37.029C145.605 37.0775 145.564 37.3119 145.564 37.3604C145.54 37.5705 145.515 37.7725 145.515 37.9584V44.0359C145.515 44.4966 145.702 44.5774 145.815 44.6178C145.937 44.6825 146.051 44.7148 146.051 44.8684C146.051 45.1674 145.815 45.1755 144.859 45.1755C144.275 45.1755 143.813 45.1755 143.813 44.731C143.813 44.6421 143.853 44.2461 143.861 44.1652C143.91 43.5429 143.91 41.0133 143.91 40.1809V37.4493C143.91 37.1987 143.74 37.1987 143.399 37.1987C143.213 37.1987 142.953 37.1987 142.953 36.9159C142.953 36.633 143.213 36.5845 143.367 36.5845H145.029L145.037 36.5684Z" fill="#595757"/>
<path d="M151.727 37.1501C150.697 37.1501 149.067 38.2493 149.067 40.9162C149.067 42.7266 149.935 44.448 152.075 44.448C153.405 44.448 154.127 43.7449 154.654 43.2115C154.792 43.0741 154.929 42.9367 155.116 42.9367C155.367 42.9367 155.578 43.1953 155.578 43.3812C155.578 43.6317 154.711 45.2238 151.856 45.2238C149.002 45.2238 147.364 43.5509 147.364 40.9809C147.364 38.2331 149.286 36.5278 151.751 36.5278C152.351 36.5278 152.643 36.6248 153.202 36.8026C153.267 36.8269 153.64 36.9481 153.713 36.9481C153.802 36.9481 154.273 36.8349 154.37 36.8349C154.84 36.8349 154.905 37.1663 154.929 37.2714C154.978 37.53 155.124 38.7907 155.124 39.1059C155.124 39.4211 154.711 39.5019 154.443 39.5019C154.046 39.5019 153.948 39.2918 153.835 39.0413C153.397 38.0391 153.348 37.926 153.04 37.627C152.44 37.1582 151.832 37.1582 151.735 37.1582L151.727 37.1501Z" fill="#595757"/>
<path d="M158.78 42.0475C158.618 42.5081 158.01 44.1406 157.921 44.3588C157.588 45.1751 157.588 45.1913 156.98 45.1913C156.77 45.1913 156.234 45.1913 156.234 44.9327C156.234 44.8195 156.275 44.7629 156.429 44.5124C156.543 44.3023 156.705 43.9548 156.924 43.4375C158.634 39.5502 158.983 38.54 159.591 36.7216C159.786 36.2851 160.362 36.2124 160.572 36.2124C161.221 36.2124 161.326 36.5114 161.602 37.1903C162.259 38.8713 162.916 40.5442 163.589 42.2253C164.4 44.2295 164.481 44.4558 164.756 44.6094C164.967 44.7064 165.032 44.7306 165.032 44.8438C165.032 45.1428 164.837 45.1428 163.516 45.1428C163.045 45.1428 162.891 45.0943 162.786 44.8357C162.624 44.4558 162.04 42.6213 161.87 42.0475H158.78ZM161.61 41.4171C161.44 40.8837 160.564 38.2652 160.378 37.6671C160.208 38.2086 159.194 40.8109 159.016 41.4171H161.61Z" fill="#595757"/>
<path d="M169.046 45.1187C168.738 45.1187 167.149 45.1429 167.108 45.1429C166.873 45.1429 166.298 45.1429 166.298 44.6095C166.298 44.4883 166.362 43.9064 166.371 43.769C166.395 43.2356 166.395 42.8881 166.395 42.2981V39.3806C166.395 39.1705 166.379 38.1198 166.379 37.8693C166.379 37.2228 166.379 37.1904 165.819 37.1904C165.592 37.1904 165.422 37.0935 165.422 36.8833C165.422 36.657 165.625 36.5601 165.819 36.5601H167.506C167.895 36.5601 168.065 36.7055 168.065 36.9803C168.065 37.1419 167.992 37.9178 167.992 38.0956L167.976 44.06C167.976 44.3832 167.992 44.4479 169.071 44.4479C170.473 44.4479 171.155 44.2782 171.99 43.1467C172.338 42.6861 172.411 42.5891 172.719 42.5891C173.052 42.5891 173.092 42.8396 173.092 42.9608C173.092 43.1225 172.906 44.1489 172.809 44.5934C172.695 45.0379 172.436 45.1268 172.055 45.1268H169.038L169.046 45.1187Z" fill="#595757"/>
<path d="M180.22 41.6113C180.22 43.7529 180.528 44.5207 182.142 44.5207C184.388 44.5207 184.412 42.6619 184.412 41.2638C184.412 40.5687 184.396 38.6857 184.339 37.3118C184.323 37.2471 184.266 36.9642 184.266 36.8996C184.266 36.5763 184.542 36.5278 184.736 36.5278H185.863C186.009 36.5278 186.253 36.5521 186.253 36.8349C186.253 36.9723 186.212 36.9804 185.904 37.1178C185.758 37.1825 185.758 37.2633 185.758 37.6108C185.758 38.1684 185.807 40.9001 185.807 41.5224C185.807 42.0073 185.79 42.6862 185.693 43.1306C185.507 43.9307 184.777 45.2077 182.125 45.2077C179.474 45.2077 178.696 44.0681 178.574 42.7104C178.558 42.573 178.558 38.6533 178.558 38.0957C178.558 37.2309 178.509 37.1582 178.096 37.142C177.787 37.1259 177.698 37.0451 177.698 36.843C177.698 36.641 177.86 36.5359 178.112 36.5359H179.717C179.977 36.5359 180.35 36.5359 180.35 36.9238C180.35 37.0208 180.261 37.4815 180.252 37.5946C180.236 37.7563 180.212 40.2455 180.212 40.9405V41.6113H180.22Z" fill="#8A0021"/>
<path d="M189.391 36.5762C189.909 36.5762 190.088 36.6893 190.372 37.1096C191.604 38.928 193.153 41.207 194.093 42.5567C194.093 39.8493 194.02 37.9743 194.004 37.8208C194.004 37.6995 193.915 37.053 193.915 36.9075C193.915 36.6085 194.215 36.5762 194.41 36.5762H195.277C195.423 36.5762 195.788 36.5923 195.788 36.8833C195.788 37.0045 195.764 37.0207 195.464 37.1581C195.253 37.255 195.229 37.2712 195.229 38.1844C195.229 39.0411 195.269 43.2356 195.269 44.173C195.269 44.9166 195.269 45.0055 194.937 45.1105C194.702 45.1994 194.329 45.1833 194.288 45.1833C193.939 45.1833 193.915 45.1429 193.664 44.763C192.496 42.9769 190.526 40.1806 189.318 38.4269V39.1058C189.318 39.526 189.318 44.2135 189.342 44.4236C189.342 44.5206 189.358 44.7549 189.358 44.86C189.358 45.2398 188.726 45.3045 188.401 45.3045C188.263 45.3045 187.988 45.2803 187.988 44.9489C187.988 44.8842 188.028 44.5367 188.028 44.464C188.117 42.9123 188.215 39.3401 188.215 38.039C188.215 37.3601 188.199 37.1823 187.728 37.1823C187.542 37.1823 187.307 37.1823 187.307 36.8994C187.307 36.6489 187.501 36.5762 187.696 36.5762H189.382H189.391Z" fill="#595757"/>
<path d="M199.007 36.5684C199.404 36.5684 199.574 36.7138 199.574 37.029C199.574 37.0775 199.534 37.3119 199.534 37.3604C199.509 37.5705 199.485 37.7725 199.485 37.9584V44.0359C199.485 44.4966 199.672 44.5774 199.785 44.6178C199.907 44.6825 200.02 44.7148 200.02 44.8684C200.02 45.1674 199.785 45.1755 198.828 45.1755C198.245 45.1755 197.782 45.1755 197.782 44.731C197.782 44.6421 197.823 44.2461 197.831 44.1652C197.88 43.5429 197.88 41.0133 197.88 40.1809V37.4493C197.88 37.1987 197.709 37.1987 197.369 37.1987C197.182 37.1987 196.923 37.1987 196.923 36.9159C196.923 36.633 197.182 36.5845 197.336 36.5845H198.999L199.007 36.5684Z" fill="#595757"/>
<path d="M203.037 36.5439C203.507 36.5439 203.556 36.6813 203.791 37.4249C205.072 41.3607 205.129 41.6355 205.818 43.5993C206.986 40.2858 207.553 38.4674 208.007 37.0531C208.096 36.7541 208.169 36.5601 208.567 36.5601H209.556C209.718 36.5601 209.913 36.6248 209.913 36.8106C209.913 36.9319 209.848 36.9804 209.742 37.0612C209.572 37.1986 209.515 37.2551 209.467 37.3683C209.321 37.6673 208.713 39.2271 208.534 39.6716C207.861 41.3203 206.848 43.9145 206.507 44.65C206.369 44.949 206.15 45.2157 205.299 45.2157C204.715 45.2157 204.667 45.0702 204.553 44.755C203.88 43.0013 202.915 40.1484 202.266 38.3785C201.893 37.3602 201.845 37.2309 201.472 37.1662C201.026 37.0935 200.985 37.0935 200.985 36.8672C200.985 36.6328 201.196 36.5439 201.366 36.5439H203.021H203.037Z" fill="#595757"/>
<path d="M213.156 44.141C213.156 44.5208 213.48 44.5532 213.861 44.5208H214.704C215.969 44.5208 216.342 44.1895 216.74 43.7207C216.926 43.4945 217.015 43.3005 217.153 43.0257C217.218 42.9126 217.291 42.7509 217.64 42.7509C218.078 42.7509 218.078 43.0338 218.078 43.1873C218.078 43.4702 218.029 44.1895 217.867 44.634C217.753 44.9653 217.591 45.1189 216.983 45.1189H212.304C211.493 45.1189 211.493 44.6582 211.493 44.4966C211.493 44.3026 211.558 43.3328 211.566 43.1146C211.591 42.0478 211.607 40.9891 211.607 39.9223L211.591 37.7321C211.591 37.3361 211.356 37.32 211.12 37.32C210.837 37.32 210.683 37.2553 210.683 36.9724C210.683 36.6088 211.08 36.6007 211.226 36.6007C211.534 36.6007 213.042 36.6169 213.375 36.6169H215.742C215.913 36.6169 216.764 36.5684 216.95 36.5684C217.226 36.5684 217.421 36.6169 217.51 36.8189C217.623 37.1018 217.672 37.821 217.672 38.0231C217.672 38.209 217.607 38.508 217.153 38.508C216.829 38.508 216.691 38.4191 216.586 38.209C216.188 37.4654 216.05 37.223 215.231 37.223H213.431C213.269 37.223 213.156 37.2957 213.156 37.4574V40.3506C213.456 40.3506 214.915 40.3506 215.256 40.3345C215.564 40.3183 215.888 40.2698 216.245 40.0354C216.553 39.8253 216.602 39.7849 216.74 39.7849C216.967 39.7849 217.015 39.9465 217.015 40.0678C217.015 40.3749 216.869 41.1427 216.391 41.1427C216.318 41.1427 215.977 41.0699 215.904 41.0538C215.645 41.0133 214.972 41.0053 214.615 41.0053C214.404 41.0053 213.699 41.0053 213.569 41.0295C213.431 41.0538 213.148 41.1265 213.148 41.4255V44.1329L213.156 44.141Z" fill="#595757"/>
<path d="M220.186 45.1431C219.886 45.1431 219.675 45.0542 219.675 44.7632C219.675 44.5773 219.74 43.6641 219.74 43.454C219.781 41.7245 219.813 39.0494 219.813 38.12C219.813 37.7563 219.813 37.3361 219.432 37.3118C219.132 37.2957 218.962 37.1502 218.962 36.9401C218.962 36.6087 219.294 36.5925 219.562 36.5925C219.651 36.5925 220.081 36.6087 220.194 36.6087C220.551 36.6087 222.327 36.5117 222.724 36.5117C223.795 36.5117 225.781 36.6976 225.781 38.5564C225.781 39.7202 225.003 40.4395 223.657 40.8355C224.589 42.3953 225.903 44.1894 226.649 44.5208C227.16 44.7471 227.184 44.7551 227.184 44.8844C227.184 45.0218 227.095 45.0784 226.884 45.135C226.535 45.2239 225.878 45.2562 225.595 45.2562C224.8 45.2562 224.654 45.0461 224.192 44.3268C223.584 43.3974 222.667 41.8861 222.067 40.9486C221.711 40.9244 221.581 40.9244 221.338 40.8759V44.0197C221.338 44.44 221.549 44.5531 221.719 44.6258C221.84 44.6905 221.93 44.739 221.93 44.8844C221.93 45.135 221.719 45.1592 221.557 45.1592H220.194L220.186 45.1431ZM221.354 40.2293C221.378 40.3425 221.605 40.4152 222.003 40.4152C224.054 40.4152 224.111 39.2514 224.111 38.7665C224.111 37.134 222.959 37.134 221.922 37.134C221.565 37.134 221.484 37.1502 221.354 37.1744C221.354 37.5462 221.346 40.1728 221.354 40.2293Z" fill="#595757"/>
<path d="M232.925 36.6974C233.046 36.6974 233.347 36.7378 233.468 37.0691C233.492 37.158 233.679 38.3056 233.679 38.54C233.679 38.8633 233.347 38.9603 233.079 38.9603C232.698 38.9603 232.592 38.8148 232.519 38.6127C232.122 37.5944 231.498 36.9802 230.573 36.9802C229.519 36.9802 229.179 37.7318 229.179 38.3945C229.179 39.1946 229.925 39.6068 230.655 39.9058C232.503 40.6574 234.206 41.3525 234.206 42.8799C234.206 43.8336 233.525 44.6337 232.641 45.0054C232.228 45.1752 231.733 45.2883 230.768 45.2883C228.295 45.2883 227.411 43.874 227.411 43.2113C227.411 42.7749 227.808 42.395 228.271 42.395C228.838 42.395 228.879 42.6536 228.944 43.3002C229.033 44.1003 229.714 44.6579 230.671 44.6579C231.352 44.6579 232.487 44.472 232.487 43.1466C232.487 42.1283 231.863 41.8616 230.363 41.1828C228.708 40.4392 227.695 39.9058 227.695 38.7097C227.695 37.2227 229.122 36.4307 230.679 36.4307C231.498 36.4307 232.041 36.6893 232.382 36.8509C232.471 36.8105 232.755 36.7054 232.925 36.7054V36.6974Z" fill="#595757"/>
<path d="M237.068 36.5684C237.466 36.5684 237.636 36.7138 237.636 37.029C237.636 37.0775 237.595 37.3119 237.595 37.3604C237.571 37.5705 237.547 37.7725 237.547 37.9584V44.0359C237.547 44.4966 237.733 44.5774 237.847 44.6178C237.968 44.6825 238.082 44.7148 238.082 44.8684C238.082 45.1674 237.847 45.1755 236.89 45.1755C236.306 45.1755 235.844 45.1755 235.844 44.731C235.844 44.6421 235.884 44.2461 235.893 44.1652C235.941 43.5429 235.941 41.0133 235.941 40.1809V37.4493C235.941 37.1987 235.771 37.1987 235.43 37.1987C235.244 37.1987 234.984 37.1987 234.984 36.9159C234.984 36.633 235.244 36.5845 235.398 36.5845H237.06L237.068 36.5684Z" fill="#595757"/>
<path d="M243.498 45.1511C243.4 45.1511 242.938 45.1672 242.873 45.1672C242.598 45.1672 242.452 45.0945 242.452 44.7874C242.452 44.7227 242.492 44.3914 242.5 44.3186C242.549 43.3003 242.549 41.2961 242.549 40.2373V37.5623C242.549 37.2552 242.476 37.2552 242.289 37.2552C240.789 37.2552 240.579 37.4814 240.214 38.2088C240.124 38.3947 240.019 38.6048 239.614 38.6048C239.338 38.6048 239.176 38.4351 239.176 38.1926C239.176 37.9502 239.265 37.2309 239.314 36.9804C239.387 36.6329 239.727 36.6167 239.8 36.6167C239.987 36.6167 241.925 36.6814 242.33 36.6814H244.179C244.527 36.6814 246.287 36.6329 246.684 36.6329H247.057C247.382 36.6329 247.479 36.7783 247.519 36.9804C247.584 37.2552 247.665 37.9179 247.665 38.1765C247.665 38.4755 247.414 38.5967 247.179 38.5967C246.781 38.5967 246.692 38.427 246.522 38.0553C246.295 37.5865 246.141 37.239 244.511 37.239C244.203 37.239 244.203 37.3037 244.203 37.8451V43.6721C244.203 44.2944 244.203 44.4399 244.641 44.6338C244.787 44.6985 244.892 44.7551 244.892 44.8844C244.892 45.1591 244.568 45.1591 244.471 45.1591H243.489L243.498 45.1511Z" fill="#595757"/>
<path d="M251.485 41.5059C251.185 40.9241 250.528 39.6633 249.822 38.5076C249.149 37.3923 249.077 37.2711 248.679 37.2549C248.541 37.2549 248.185 37.2388 248.185 36.9559C248.185 36.77 248.412 36.7215 248.517 36.6973C249.117 36.5841 249.612 36.5356 249.847 36.5356C250.414 36.5356 250.593 36.867 250.787 37.263C251.039 37.7318 252.263 40.0351 252.539 40.5523C253.633 38.3621 253.958 37.756 254.428 36.867C254.574 36.5841 254.679 36.5437 255.012 36.5437C255.952 36.5437 256.228 36.568 256.228 36.8508C256.228 36.9882 256.155 37.069 255.952 37.1579C255.831 37.2226 255.807 37.2307 255.742 37.2792C255.644 37.3762 255.296 37.95 255.206 38.0712C253.52 40.5361 253.244 41.0776 253.098 41.3605C253.098 41.7322 253.115 43.5749 253.115 43.9951C253.115 44.3669 253.309 44.5043 253.536 44.5932C253.674 44.6578 253.771 44.7144 253.771 44.8518C253.771 45.1508 253.496 45.1508 252.409 45.1508C251.874 45.1508 251.444 45.1508 251.444 44.6417C251.444 44.5447 251.469 44.1002 251.469 44.0194L251.493 41.4817L251.485 41.5059Z" fill="#595757"/>
<path d="M268.513 40.2049V37.6673C268.513 37.2228 268.513 37.1743 268.075 37.1743C267.864 37.1743 267.54 37.1743 267.54 36.8914C267.54 36.6409 267.799 36.5601 267.962 36.5601H269.6C269.827 36.5601 270.183 36.5843 270.183 36.9722C270.183 37.0935 270.086 37.7885 270.086 37.934V44.0357C270.086 44.4964 270.297 44.5772 270.435 44.6418C270.597 44.7146 270.637 44.7631 270.637 44.8681C270.637 45.1187 270.354 45.151 270.281 45.151C270.191 45.1672 269.6 45.1752 269.47 45.1752C268.87 45.1752 268.416 45.1752 268.416 44.7307C268.416 44.6418 268.456 44.1973 268.464 44.1004C268.489 43.7771 268.513 41.4253 268.529 40.8919H264.134V44.0357C264.134 44.2054 264.159 44.4721 264.37 44.5934C264.653 44.755 264.678 44.7631 264.678 44.8762C264.678 45.151 264.297 45.1591 264.183 45.1591C264.086 45.1591 263.583 45.1752 263.478 45.1752C262.942 45.1752 262.456 45.1752 262.456 44.7307C262.456 44.6661 262.496 44.3509 262.496 44.3186C262.545 43.7852 262.545 43.179 262.561 42.2496C262.578 41.2313 262.578 40.8757 262.578 37.7319C262.578 37.2389 262.578 37.1743 262.115 37.1743C261.929 37.1743 261.629 37.1743 261.629 36.8914C261.629 36.6328 261.888 36.5601 262.051 36.5601H263.656C263.883 36.5601 264.24 36.5843 264.24 36.9722C264.24 37.0935 264.143 37.7885 264.143 37.934V40.213H268.529L268.513 40.2049Z" fill="#8A0021"/>
<path d="M276.597 45.2317C273.192 45.2317 272.064 42.6617 272.064 40.811C272.064 38.3218 274.092 36.5195 276.605 36.5195C278.973 36.5195 281 38.0066 281 40.8999C281 43.3163 279.151 45.2317 276.589 45.2317H276.597ZM276.459 37.1661C274.546 37.1661 273.719 39.2673 273.719 40.8514C273.719 42.4354 274.529 44.6013 276.565 44.6013C278.6 44.6013 279.281 42.3627 279.281 40.9403C279.281 38.8633 278.211 37.1661 276.459 37.1661Z" fill="#595757"/>
<path d="M287.786 36.6974C287.908 36.6974 288.208 36.7378 288.329 37.0691C288.354 37.158 288.54 38.3056 288.54 38.54C288.54 38.8633 288.208 38.9603 287.94 38.9603C287.559 38.9603 287.454 38.8148 287.381 38.6127C286.983 37.5944 286.359 36.9802 285.435 36.9802C284.381 36.9802 284.04 37.7318 284.04 38.3945C284.04 39.1946 284.786 39.6068 285.516 39.9058C287.365 40.6574 289.067 41.3525 289.067 42.8799C289.067 43.8336 288.386 44.6337 287.502 45.0054C287.089 45.1752 286.594 45.2883 285.629 45.2883C283.156 45.2883 282.272 43.874 282.272 43.2113C282.272 42.7749 282.67 42.395 283.132 42.395C283.7 42.395 283.74 42.6536 283.805 43.3002C283.894 44.1003 284.575 44.6579 285.532 44.6579C286.213 44.6579 287.348 44.472 287.348 43.1466C287.348 42.1283 286.724 41.8616 285.224 41.1828C283.57 40.4392 282.556 39.9058 282.556 38.7097C282.556 37.2227 283.983 36.4307 285.54 36.4307C286.359 36.4307 286.902 36.6893 287.243 36.8509C287.332 36.8105 287.616 36.7054 287.786 36.7054V36.6974Z" fill="#595757"/>
<path d="M291.459 45.127C290.973 45.127 290.94 44.8522 290.94 44.634C290.94 44.3026 290.989 42.6701 290.989 42.2983C291.005 41.0376 291.005 39.5748 291.005 38.2898C291.005 37.9423 291.005 37.8291 290.981 37.6432C290.94 37.32 290.819 37.2957 290.519 37.2876C290.284 37.2715 290.057 37.1745 290.057 36.9805C290.057 36.8108 290.194 36.633 290.438 36.633H291.954C292.254 36.633 293.77 36.5684 294.103 36.5684C295.481 36.5684 297.16 37.0048 297.16 38.6615C297.16 40.3183 295.757 41.272 293.511 41.272C292.943 41.272 292.757 41.2477 292.554 41.1992V43.9955C292.554 44.4319 292.765 44.5289 292.927 44.6017C293.065 44.6663 293.154 44.6986 293.154 44.836C293.154 45.1108 292.83 45.1351 292.668 45.1351H291.459V45.127ZM292.554 40.4234C292.595 40.6335 293.308 40.6497 293.519 40.6497C294.119 40.6497 295.522 40.585 295.522 38.7828C295.522 37.6675 294.849 37.1745 293.608 37.1745C293.462 37.1745 292.724 37.2149 292.562 37.2149C292.562 37.6756 292.546 39.9223 292.546 40.4315L292.554 40.4234Z" fill="#595757"/>
<path d="M300.224 36.5684C300.622 36.5684 300.792 36.7138 300.792 37.029C300.792 37.0775 300.752 37.3119 300.752 37.3604C300.727 37.5705 300.703 37.7725 300.703 37.9584V44.0359C300.703 44.4966 300.889 44.5774 301.003 44.6178C301.125 44.6825 301.238 44.7148 301.238 44.8684C301.238 45.1674 301.003 45.1755 300.046 45.1755C299.462 45.1755 299 45.1755 299 44.731C299 44.6421 299.041 44.2461 299.049 44.1652C299.097 43.5429 299.097 41.0133 299.097 40.1809V37.4493C299.097 37.1987 298.927 37.1987 298.587 37.1987C298.4 37.1987 298.141 37.1987 298.141 36.9159C298.141 36.633 298.4 36.5845 298.554 36.5845H300.216L300.224 36.5684Z" fill="#595757"/>
<path d="M306.655 45.1511C306.558 45.1511 306.095 45.1672 306.03 45.1672C305.755 45.1672 305.609 45.0945 305.609 44.7874C305.609 44.7227 305.649 44.3914 305.657 44.3186C305.706 43.3003 305.706 41.2961 305.706 40.2373V37.5623C305.706 37.2552 305.633 37.2552 305.447 37.2552C303.947 37.2552 303.736 37.4814 303.371 38.2088C303.282 38.3947 303.176 38.6048 302.771 38.6048C302.495 38.6048 302.333 38.4351 302.333 38.1926C302.333 37.9502 302.422 37.2309 302.471 36.9804C302.544 36.6329 302.884 36.6167 302.957 36.6167C303.144 36.6167 305.082 36.6814 305.487 36.6814H307.336C307.685 36.6814 309.444 36.6329 309.841 36.6329H310.214C310.539 36.6329 310.636 36.7783 310.677 36.9804C310.741 37.2552 310.823 37.9179 310.823 38.1765C310.823 38.4755 310.571 38.5967 310.336 38.5967C309.939 38.5967 309.85 38.427 309.679 38.0553C309.452 37.5865 309.298 37.239 307.668 37.239C307.36 37.239 307.36 37.3037 307.36 37.8451V43.6721C307.36 44.2944 307.36 44.4399 307.798 44.6338C307.944 44.6985 308.049 44.7551 308.049 44.8844C308.049 45.1591 307.725 45.1591 307.628 45.1591H306.647L306.655 45.1511Z" fill="#595757"/>
<path d="M313.53 42.0475C313.368 42.5081 312.76 44.1406 312.671 44.3588C312.338 45.1751 312.338 45.1913 311.73 45.1913C311.52 45.1913 310.984 45.1913 310.984 44.9327C310.984 44.8195 311.025 44.7629 311.179 44.5124C311.292 44.3023 311.455 43.9548 311.674 43.4375C313.384 39.5502 313.733 38.54 314.341 36.7216C314.536 36.2851 315.112 36.2124 315.322 36.2124C315.971 36.2124 316.076 36.5114 316.352 37.1903C317.009 38.8713 317.666 40.5442 318.339 42.2253C319.15 44.2295 319.231 44.4558 319.506 44.6094C319.717 44.7064 319.782 44.7306 319.782 44.8438C319.782 45.1428 319.587 45.1428 318.266 45.1428C317.795 45.1428 317.641 45.0943 317.536 44.8357C317.374 44.4558 316.79 42.6213 316.62 42.0475H313.53ZM316.36 41.4171C316.19 40.8837 315.314 38.2652 315.128 37.6671C314.958 38.2086 313.944 40.8109 313.766 41.4171H316.36Z" fill="#595757"/>
<path d="M323.796 45.1187C323.488 45.1187 321.899 45.1429 321.858 45.1429C321.623 45.1429 321.048 45.1429 321.048 44.6095C321.048 44.4883 321.112 43.9064 321.121 43.769C321.145 43.2356 321.145 42.8881 321.145 42.2981V39.3806C321.145 39.1705 321.129 38.1198 321.129 37.8693C321.129 37.2228 321.129 37.1904 320.569 37.1904C320.342 37.1904 320.172 37.0935 320.172 36.8833C320.172 36.657 320.375 36.5601 320.569 36.5601H322.256C322.645 36.5601 322.815 36.7055 322.815 36.9803C322.815 37.1419 322.742 37.9178 322.742 38.0956L322.726 44.06C322.726 44.3832 322.742 44.4479 323.821 44.4479C325.223 44.4479 325.905 44.2782 326.74 43.1467C327.088 42.6861 327.161 42.5891 327.469 42.5891C327.802 42.5891 327.842 42.8396 327.842 42.9608C327.842 43.1225 327.656 44.1489 327.559 44.5934C327.445 45.0379 327.186 45.1268 326.805 45.1268H323.788L323.796 45.1187Z" fill="#595757"/>
<path d="M59.1765 30.8865C58.6089 30.8865 58.0332 30.5147 58.0332 29.6904V29.6015C58.317 24.817 58.4224 17.7131 58.4224 12.6539C58.4224 11.8458 58.4143 11.0618 58.4062 10.3264C58.4062 9.66369 58.39 9.03331 58.39 8.44334C58.39 8.07966 58.3008 5.87333 58.0656 4.75804C58.0332 4.66106 58.0332 4.53983 58.0332 4.49942C58.0332 4.24889 58.2035 4.13574 58.3738 4.13574C58.6413 4.13574 60.6198 4.91968 61.2847 5.3965L61.3739 5.46924H65.1524C65.2173 5.46924 65.3146 5.42075 65.3551 5.35609C65.4605 5.18637 65.9876 4.556 66.3687 4.556C66.7498 4.556 68.9066 5.74402 68.9066 6.43097C68.9066 6.79465 68.5661 7.00478 68.2904 7.18258L68.1688 7.26339C67.7714 7.52201 67.7471 7.61899 67.7471 8.27362V8.66154C67.7471 10.2617 67.8931 13.0742 67.9255 13.6238C67.9255 14.4077 67.2931 15.0138 66.5471 15.0138C65.9227 15.0138 65.5254 14.6017 65.5254 13.9632V13.7692H60.5874V16.6302C60.5874 21.746 60.6522 27.0719 60.709 29.4802C60.709 29.7631 60.4414 30.8865 59.1846 30.8865H59.1765ZM65.566 12.4923C65.5822 11.7892 65.5903 10.9729 65.5903 10.1486H60.6441C60.6279 10.8679 60.6198 11.6518 60.6198 12.4923H65.566ZM65.5903 8.87975C65.5903 8.015 65.5497 7.25531 65.5335 6.8593C65.5335 6.77041 65.4768 6.77041 65.4524 6.77041H61.0495C60.7414 6.91588 60.6522 7.05327 60.6522 8.87975H65.5903ZM77.1935 30.6763C76.788 30.6763 76.6259 30.4258 76.4637 30.1914L76.4151 30.1187C76.1799 29.7469 74.8258 29.1246 74.015 28.7529C72.9527 28.268 72.7744 28.1791 72.7744 27.9447V27.8477L72.8473 27.775C72.8473 27.775 72.9609 27.6699 73.1149 27.6699C73.1879 27.6699 73.2771 27.6861 73.3906 27.7022H73.4311C73.2933 27.581 73.1555 27.4194 73.0257 27.2254C72.4419 26.3526 71.0392 25.2454 69.8229 24.4695C68.4769 27.8881 64.893 29.1165 62.1766 29.1165C61.6982 29.1165 61.455 28.9953 61.455 28.7448C61.455 28.4943 61.7469 28.3245 62.3145 28.2356C65.2416 27.6942 67.3417 25.8434 67.9904 23.2492C67.0579 23.2492 66.166 23.3381 65.2254 23.4351C64.8605 23.4755 64.4875 23.5078 64.1064 23.5401C63.4334 23.5401 62.501 22.3521 62.501 21.8672V21.5843L62.7848 21.6166C65.3713 21.9399 66.7822 22.0611 68.1607 22.0611H68.2012C68.2093 21.8672 68.2093 21.6571 68.2093 21.4469V20.8812C68.2093 20.461 68.1931 20.1943 68.1688 19.9518C67.0822 19.9922 65.647 20.0892 64.7065 20.1781C64.1389 20.1781 63.2794 19.1194 63.2794 18.6264V18.3435L63.5632 18.3759C65.3551 18.6102 67.9823 18.7315 69.1823 18.7315H69.458C69.9851 17.8667 71.0148 16.0806 71.2257 14.9653C71.2419 14.8845 71.25 14.7875 71.2905 14.7067C71.0067 14.537 70.804 14.2299 70.804 13.7935V13.6723C70.9905 11.6356 71.0148 10.4153 71.0148 9.58287C71.0148 6.72191 70.7878 5.28336 70.6905 4.79845C70.6581 4.70147 70.6581 4.58024 70.6581 4.53983C70.6581 4.2893 70.8202 4.17615 70.9662 4.17615C71.3392 4.17615 73.2041 4.94392 73.7879 5.38034L73.8771 5.45307H78.0692C78.134 5.45307 78.2313 5.40458 78.2719 5.33993C78.3773 5.17021 78.9043 4.53983 79.2854 4.53983C79.6017 4.53983 81.9693 5.62279 81.9693 6.41481C81.9693 6.77849 81.6288 6.98861 81.3612 7.16641L81.2396 7.24723C80.9152 7.44119 80.7531 8.69657 80.7531 11.0133C80.7531 15.1351 80.8666 21.6651 80.9315 24.2513C80.9315 24.5018 80.9558 25.1161 80.9801 25.706C81.0044 26.2718 81.0207 26.8132 81.0207 27.0153C81.0207 30.046 78.0124 30.6683 77.2016 30.6683L77.1935 30.6763ZM74.8015 27.9204C75.6772 28.0498 76.3096 28.1063 76.8043 28.1063C78.1097 28.1063 78.58 27.7426 78.6043 26.7163C78.6368 26.0374 78.6368 24.6877 78.6368 22.9906C78.6368 20.3397 78.6043 16.8403 78.58 13.7612H73.2447C73.196 14.3188 72.7257 14.7229 72.2149 14.8441C72.9609 15.2482 74.0555 15.9513 74.0555 16.4443C74.0555 16.7433 73.796 17.0504 73.2122 17.0504H72.9771C72.8068 17.0504 72.7419 17.0908 72.5473 17.2606C72.377 17.406 72.15 17.6162 71.8824 17.8505C71.5743 18.1334 71.2256 18.4486 70.8851 18.7476H72.6527C72.6527 18.7476 72.6933 18.683 72.7176 18.6345C72.9527 18.1738 73.4068 17.6808 73.6663 17.4303C73.7636 17.3333 73.9177 17.2686 74.0555 17.2686C74.1447 17.2686 74.2744 17.2686 74.3798 17.3656C76.0259 18.2304 76.3907 18.9254 76.3907 19.3537C76.3907 19.5235 76.3178 19.9276 75.6042 19.9276L70.9743 19.9518C70.9581 20.1862 70.7554 20.4286 70.4553 20.5822L70.3743 20.6226C70.3743 20.6226 70.3499 20.7196 70.3499 21.1317V21.6651C70.3499 21.7944 70.3499 21.9318 70.3499 22.0692H73.1068C73.1068 22.0692 73.1879 22.0288 73.2447 21.9238C73.5447 21.4146 73.8528 21.0348 74.2258 20.6388C74.2825 20.5014 74.5015 20.5014 74.5907 20.5014C74.6961 20.5014 74.8015 20.5014 74.9069 20.5579C75.6853 20.8893 77.1529 21.8591 77.1529 22.6754C77.1529 22.9501 76.9421 23.2815 76.3421 23.2815H70.1878C70.1634 23.4108 70.131 23.5482 70.0986 23.6775C71.7527 23.928 75.3447 24.8979 75.3447 26.886C75.3447 27.3466 75.1339 27.7346 74.8177 27.9366L74.8015 27.9204ZM78.5476 12.4923C78.5476 11.6518 78.5476 10.8517 78.5233 10.1486H73.1555C73.1555 10.8436 73.1798 11.6356 73.2041 12.4681V12.4923H78.5395H78.5476ZM78.4827 8.87975C78.4827 8.54032 78.4665 8.23321 78.4665 7.96651C78.4584 7.45736 78.4503 7.07751 78.4341 6.86739C78.4341 6.77041 78.3773 6.77041 78.353 6.77041H73.5366C73.2122 6.93204 73.2122 6.9482 73.196 7.59475C73.196 7.72406 73.196 7.89377 73.1879 8.09582C73.1879 8.32211 73.1717 8.58073 73.1717 8.87975H78.4908H78.4827ZM67.9174 18.5617C67.4633 18.5617 67.0498 18.2627 66.7741 17.7455C66.4822 17.2121 65.6633 16.3231 65.0308 15.8382C64.8767 15.7169 64.7227 15.5957 64.7227 15.4018C64.7227 15.0623 65.1605 15.0623 65.3308 15.0623H65.42C66.8957 15.0623 69.0283 15.8705 69.0283 17.3252C69.0283 18.0041 68.5255 18.5537 67.9174 18.5537V18.5617Z" fill="#595757"/>
<path d="M93.9539 30.3211C93.4268 30.3211 92.8998 29.9655 92.8998 29.1816V29.0604C93.1674 25.7468 93.3133 21.8676 93.3133 18.3924C93.3133 14.9172 93.1836 12.5978 92.9322 11.4825C92.8998 11.3774 92.8998 11.2885 92.8998 11.2239C92.8998 11.0137 93.0538 10.8844 93.2079 10.8844C93.5647 10.8844 95.9567 12.0724 96.2891 12.2907L96.354 12.3391H99.9785C99.9785 11.3047 99.946 10.3349 99.9217 9.48628C99.9217 9.15492 99.8974 8.35483 99.8568 7.80526C97.8621 7.80526 94.2944 7.90225 91.9916 8.12854C91.2375 8.12854 90.3213 6.81929 90.3213 6.34246V6.0596L90.597 6.09193C93.7025 6.45561 99.1757 6.56875 100.822 6.56875H112.149C112.271 6.56875 112.401 6.49602 112.441 6.42328C113.747 4.40283 114.225 4.40283 114.379 4.40283C114.452 4.40283 114.557 4.40283 114.671 4.4594C115.539 4.77459 117.485 6.46369 117.485 7.19913C117.485 7.3446 117.42 7.80526 116.585 7.80526H108.022C107.973 7.97498 107.819 8.12854 107.584 8.22552C107.349 8.3225 107.341 8.39524 107.325 8.52454V8.80741C107.308 9.35697 107.292 10.747 107.292 12.3391H111.59C111.638 12.3391 111.752 12.2745 111.841 12.1694C112.628 11.1269 112.984 11.1269 113.106 11.1269C113.495 11.1269 115.912 12.3715 115.912 13.3575C115.912 13.8424 115.425 14.1414 114.906 14.3838C114.647 14.5131 114.517 15.2971 114.517 16.7356C114.517 19.5723 114.712 24.3568 114.906 28.6644C114.906 29.618 114.128 30.1676 113.406 30.1676C112.838 30.1676 112.263 29.8039 112.263 29.0038V27.8319H95.462V28.9472C95.462 29.7716 94.6836 30.3211 93.962 30.3211H93.9539ZM112.255 26.5389C112.255 22.5707 112.23 17.0589 112.044 13.8262C112.044 13.7373 111.971 13.6484 111.906 13.6484H107.284C107.284 15.8062 107.268 18.0691 107.26 19.0955V19.6532C107.26 20.1462 107.26 20.3563 108.403 20.3563C109.311 20.3563 109.944 19.4457 110.301 17.6246C110.333 17.4468 110.373 17.1559 110.633 17.1559C110.917 17.1559 110.965 17.4226 111.103 18.2065C111.184 18.6429 111.338 19.5481 111.492 19.6774C111.898 19.8633 112.165 20.2431 112.165 20.6634C112.165 21.7948 110.722 22.3606 107.876 22.3606C105.987 22.3606 105.071 21.6009 105.071 20.0411V19.8067C105.103 19.4269 105.103 16.4043 105.103 13.6565H102.168C101.941 17.5438 101.008 21.7625 96.1837 23.9769C95.9404 24.0901 95.6972 24.1709 95.4945 24.2113C95.4945 24.6154 95.4945 25.0033 95.4783 25.3993C95.4783 25.7792 95.462 26.1671 95.462 26.555H112.263L112.255 26.5389ZM96.0702 13.7696C95.6648 14.0282 95.6648 14.0606 95.6648 14.8445L95.4945 23.2334C95.4945 23.2334 95.5756 23.1849 95.6161 23.1607C99.2649 21.0432 99.873 16.7761 99.9703 13.6403H96.2405L96.0702 13.7696ZM105.095 12.3472V8.71851C105.095 8.46797 105.095 8.12045 105.079 7.81335H103.003C102.962 8.03155 102.752 8.22552 102.419 8.33058C102.379 8.33866 102.306 8.36291 102.289 8.37907C102.265 8.42756 102.265 8.74275 102.265 8.89631C102.265 10.1409 102.265 10.5531 102.216 12.3472H105.103H105.095Z" fill="#595757"/>
<path d="M129.777 30.7088C129.104 30.7088 128.666 30.2643 128.666 29.5693V29.4481C128.974 24.9384 129.08 17.8184 129.08 13.0905C129.08 12.4682 129.08 11.8783 129.063 11.3125C129.063 10.8115 129.047 10.3346 129.047 9.89014C129.047 9.09813 128.958 6.40689 128.698 5.20271C128.666 5.10573 128.666 5.00874 128.666 4.94409C128.666 4.75821 128.804 4.60465 128.974 4.60465C129.266 4.60465 131.423 5.50982 132.145 6.01089L132.242 6.08362H147.494C147.599 6.08362 147.745 6.0028 147.786 5.93815C147.802 5.90582 149.067 4.16016 149.602 4.16016C149.667 4.16016 149.716 4.17632 149.756 4.1844H149.797L149.87 4.20865C150.737 4.52384 152.618 5.95431 152.618 6.69784C152.618 7.02111 152.383 7.39287 151.71 7.39287H132.055L131.909 7.49794C131.512 7.75655 131.512 7.78888 131.512 8.57281L131.488 10.6337C131.439 14.2543 131.35 20.7197 131.317 25.9002C131.447 25.8274 131.593 25.7789 131.715 25.7547C136.491 24.7768 139.402 21.9401 139.937 17.7699H139.596C138.607 17.7699 136.037 17.8022 133.499 18.0689C132.842 18.0689 131.885 16.8243 131.885 16.3394V16.0565L132.169 16.097C132.42 16.1293 132.672 16.1616 132.939 16.1939C132.963 16.105 133.028 15.9757 133.191 15.7737C134.65 14.125 136.88 10.1568 136.88 8.37885C136.88 8.16064 136.88 7.83737 137.188 7.83737C137.431 7.83737 140.172 8.45159 140.172 9.3325C140.172 9.69618 139.791 9.97096 139.183 10.0518C138.999 10.0787 138.85 10.1811 138.737 10.3589L138.023 11.4823H144.226C144.267 11.4823 144.372 11.4418 144.396 11.3934C145.451 9.64769 145.832 9.64769 145.978 9.64769C146.042 9.64769 146.091 9.66385 146.132 9.67194H146.18L146.253 9.69618C147.121 10.0518 148.67 11.4095 148.67 12.1207C148.67 12.2177 148.629 12.7269 147.826 12.7269H143.026C143.026 12.9774 142.783 13.2037 142.377 13.333C142.345 13.3411 142.272 13.3653 142.256 13.3734C142.248 13.4057 142.24 13.6482 142.231 13.923V14.1412C142.231 14.4806 142.215 14.8928 142.207 15.2969C142.207 15.6767 142.191 16.0485 142.191 16.3556C142.191 16.4202 142.191 16.4849 142.183 16.5495H146.318C146.318 16.5495 146.399 16.5495 146.488 16.4041L146.561 16.299C147.656 14.7554 147.972 14.6261 148.183 14.6261C148.256 14.6261 148.321 14.6422 148.361 14.6503H148.41L148.483 14.6746C149.253 14.9817 150.956 16.3879 150.956 17.1557C150.956 17.4628 150.737 17.7861 150.113 17.7861H142.102C142.053 18.2548 141.964 18.7316 141.85 19.2327C144.834 20.1217 150.097 22.3038 150.097 24.6475C150.097 25.3991 149.61 25.9648 148.953 25.9648C148.426 25.9648 147.851 25.5931 147.299 24.8899C145.669 22.7644 143.091 21.1077 141.542 20.2429C139.337 26.3447 131.642 26.6194 131.561 26.6194C131.463 26.6194 131.382 26.6114 131.309 26.5952C131.309 26.7649 131.309 26.9346 131.309 27.1044H148.297C148.418 27.1044 148.556 27.0397 148.588 26.9831C148.613 26.9508 149.878 25.2294 150.437 25.2294C150.51 25.2294 150.575 25.2455 150.616 25.2536H150.664L150.737 25.2779C151.297 25.488 153.543 26.8781 153.543 27.7347C153.543 27.8883 153.478 28.3974 152.635 28.3974H131.301V29.3673C131.301 30.1916 130.515 30.7412 129.777 30.7412V30.7088ZM133.92 16.2748C136.11 16.4687 138.437 16.5253 139.677 16.5253H140.01C140.01 16.4606 140.026 16.396 140.026 16.3313C140.026 16.1293 140.026 15.8464 140.01 15.5636C140.01 15.2645 139.994 14.9574 139.994 14.7311C139.994 14.5937 139.994 14.4564 140.01 14.319C140.01 14.1897 140.026 14.0603 140.026 13.931C140.026 13.4704 140.002 13.0824 139.945 12.6945H137.196C135.972 14.3998 134.731 15.6929 133.928 16.2748H133.92Z" fill="#8A0021"/>
<path d="M181.792 30.709C181.103 30.709 180.649 30.2645 180.649 29.5695V29.4483C180.787 27.4116 180.876 24.5992 180.908 21.4634L178.938 22.0857C177.479 22.5383 175.492 23.1606 173.465 24.0173C173.368 24.0658 173.286 24.0658 173.222 24.0658C172.581 24.0658 171.535 23.2576 171.381 22.8374L171.276 22.5545L171.568 22.506C174.414 22.013 177.641 21.1806 179.116 20.7361L180.933 20.1704C180.957 18.9823 180.957 17.7782 180.957 16.6225C180.957 7.02129 180.754 5.4211 180.552 4.59676C180.511 4.48361 180.511 4.37047 180.511 4.33006C180.511 4.11993 180.665 4.02295 180.819 4.02295C180.86 4.02295 184.517 4.37855 184.517 5.36453C184.517 5.67163 184.257 5.97066 183.763 6.23736C183.46 6.41516 183.295 6.66839 183.268 6.99705L183.244 7.28799C183.114 8.38711 183.098 10.7228 183.098 12.8644C183.098 14.8445 183.122 17.1478 183.154 19.4915L183.998 19.2329C184.111 19.1925 184.168 19.0712 184.192 19.0066C184.371 18.457 184.687 17.6893 185.011 17.0508C185.125 16.7598 185.53 16.7356 185.652 16.7356C186.592 16.7922 188.96 17.7054 188.96 18.554C188.96 18.7318 188.871 19.0551 188.279 19.2329L183.195 20.7765L183.365 29.327C183.365 30.1675 182.546 30.709 181.776 30.709H181.792ZM168 30.6524C167.481 30.6524 166.921 30.3373 166.921 29.4563C167.035 26.8459 167.124 23.3707 167.205 18.5378C165.056 21.7786 161.448 24.5264 160.451 24.5264C160.248 24.5264 160.086 24.3891 160.086 24.2193C160.086 24.09 160.151 23.888 160.662 23.5162C162.754 21.9322 166.727 16.2911 167.254 13.713V13.511C166.419 13.511 164.521 13.5514 162.989 13.7777C162.397 13.7777 161.489 12.5492 161.489 12.1128V11.8219L161.772 11.8623C163.378 12.1047 165.665 12.226 167.254 12.2664C167.254 12.0482 167.246 11.838 167.238 11.636C167.238 11.3855 167.221 11.143 167.221 10.9167C167.213 10.7147 167.205 10.3672 167.197 9.95498C167.181 9.2357 167.165 8.35479 167.124 7.63551C165.51 7.79714 164.254 7.87796 163.281 7.87796C162.308 7.87796 161.991 7.78098 161.991 7.48195C161.991 7.2395 162.267 7.09403 162.851 7.05362C165.008 6.81925 169.84 5.5989 170.919 4.37855L170.967 4.31389C171 4.25732 171.073 4.11993 171.251 4.11993C171.486 4.11993 173.611 5.64739 173.611 6.32626C173.611 6.60104 173.384 6.86774 172.889 6.86774C172.751 6.86774 172.573 6.86774 172.378 6.78692H172.338C172.249 6.76268 172.168 6.74651 172.119 6.74651C171.997 6.74651 171.884 6.77076 171.762 6.81925C171.389 6.94047 170.878 7.06978 170.157 7.20717C170.157 7.2395 170.165 7.27183 170.165 7.29607C170.165 7.53853 169.978 7.74865 169.613 7.93453C169.467 8.02074 169.386 8.31707 169.37 8.82353V9.13872C169.33 9.88225 169.289 10.9814 169.281 12.2583H170.513C170.513 12.2583 170.611 12.2098 170.659 12.1451C171.43 10.8682 171.843 10.3914 172.184 10.3914C172.8 10.3914 174.778 12.0643 174.778 12.921C174.778 13.0584 174.722 13.4948 173.968 13.4948H169.281V16.1456C171.178 16.2184 173.773 17.1316 173.773 18.9985C173.773 19.7178 173.319 20.2512 172.719 20.2512C172.232 20.2512 171.746 19.9198 171.349 19.3056C170.708 18.3843 169.978 17.5923 169.281 17.0912C169.321 22.1423 169.386 26.2398 169.484 29.2705C169.484 30.1029 168.713 30.6524 168.016 30.6524H168ZM177.746 18.1176C177.438 18.1176 176.976 17.9883 176.538 17.3902C176.068 16.7598 175.014 15.8628 174.178 15.3859L174.049 15.3051C173.838 15.1758 173.7 15.0869 173.7 14.901C173.7 14.6263 173.911 14.505 175.168 14.505C177.024 14.505 179.011 15.0788 179.011 16.679C179.011 17.471 178.443 18.1095 177.754 18.1095L177.746 18.1176ZM178.46 12.1047C178.152 12.1047 177.56 11.9754 177.106 11.1107C176.708 10.4076 175.776 9.39734 174.949 8.76696L174.843 8.67806C174.641 8.50834 174.527 8.41136 174.527 8.24164C174.527 7.93454 174.835 7.93453 175.224 7.93453C177.049 7.93453 179.757 8.7912 179.757 10.6419C179.757 11.4501 179.181 12.1047 178.468 12.1047H178.46Z" fill="#595757"/>
<path d="M195.431 30.6765C195.05 30.6765 195.034 30.4179 195.034 30.3694C195.034 29.9815 195.886 29.642 196.056 29.5774C202.624 26.967 206.427 19.9843 207.327 14.1169H206.216C204.432 14.1169 200.726 14.1816 198.188 14.4402C197.426 14.4402 196.396 13.1875 196.396 12.6541V12.3713L196.672 12.4036C199.745 12.7673 204.829 12.8723 206.337 12.8723H207.481C207.521 12.4197 207.546 11.9995 207.546 11.5792C207.546 6.55237 207.448 5.79268 207.254 4.66123C207.221 4.62082 207.221 4.51576 207.221 4.46726C207.221 4.29755 207.359 4.16016 207.529 4.16016C208.381 4.16016 211.527 4.72588 211.527 5.71186C211.527 6.08362 211.202 6.39881 210.57 6.65743L210.408 6.72208C210.075 6.84331 210.043 6.85139 210.043 8.23338C210.043 9.36483 210.019 10.4235 209.986 11.5469V11.7085C209.986 12.0965 209.962 12.4844 209.938 12.8723H216.773C216.895 12.8723 217.024 12.7996 217.065 12.7269C217.073 12.7107 218.297 10.7387 218.946 10.7387C219.027 10.7387 219.084 10.7549 219.124 10.763H219.165L219.23 10.7791C220.211 11.1186 222.076 12.7996 222.076 13.5027C222.076 13.6482 222.011 14.1088 221.176 14.1088H210.148C211.835 19.7984 216.513 26.1749 223.341 27.8398C223.625 27.8883 223.795 28.0176 223.795 28.1954C223.795 28.4863 223.511 28.551 222.587 28.753C221.711 28.947 220.389 29.2299 219.951 29.6744C219.814 29.8118 219.635 29.8926 219.481 29.8926C218.678 29.8926 211.673 25.189 209.508 15.806C208.235 21.6087 204.229 28.1711 196.429 30.4502C195.967 30.5957 195.634 30.6684 195.44 30.6684L195.431 30.6765Z" fill="#595757"/>
<path d="M240.579 30.7979C240.19 30.7979 239.979 30.5958 239.777 30.3049C239.525 29.917 238.341 29.2623 237.547 28.8259C236.501 28.2521 236.282 28.1228 236.282 27.8804C236.282 27.7106 236.444 27.5732 236.647 27.5732C236.72 27.5732 236.817 27.5894 236.939 27.6137L237.076 27.6379C238.698 27.9288 239.914 28.139 240.806 28.139C242.452 28.139 242.517 27.4439 242.517 24.8012C242.517 23.6293 242.485 22.4494 242.46 21.819H240.149C238.293 21.819 234.101 21.8837 231.522 22.1423C230.736 22.1423 229.819 20.8492 229.819 20.3562V20.0733L230.103 20.1057C233.168 20.4936 238.625 20.5744 240.295 20.5744H242.412C242.371 19.6612 242.266 18.8449 242.104 18.1499C242.071 18.0044 242.071 17.9236 242.071 17.8589C242.071 17.665 242.185 17.5518 242.379 17.5518C242.614 17.5518 243.936 17.8589 244.398 17.964C245.217 17.0103 246.19 15.7334 246.417 15.2889H243.596C241.463 15.2889 239.622 15.2889 237.076 15.4991C236.412 15.4991 235.471 14.408 235.471 13.8584V13.5837L235.747 13.616C239.574 14.0282 243.466 14.0282 243.628 14.0282H246.482C246.693 14.0282 246.79 13.9797 246.928 13.8342C247.877 13.0503 247.974 13.0503 248.112 13.0503C248.526 13.0503 249.296 13.6402 249.677 13.9473C250.512 12.8159 251.226 11.644 251.372 11.24H235.414C235.155 13.915 233.428 15.8951 232.001 15.8951C231.246 15.8951 230.679 15.3536 230.679 14.6424C230.679 14.0928 231.011 13.4948 231.595 13.0018C233.282 11.5632 233.995 10.4075 234.336 8.58104C234.376 8.24161 234.538 8.0234 234.757 8.0234C235.203 8.0234 235.357 9.17909 235.406 10.0115H246.061C246.628 9.10636 247.755 6.92428 248.071 6.0272C248.242 5.5827 248.388 4.71795 248.412 4.40276C248.444 4.17647 248.485 3.90977 248.777 3.90977C248.963 3.90977 251.972 5.316 251.972 6.1161C251.972 6.6899 251.096 6.73839 250.812 6.74648C250.455 6.74648 250.423 6.7788 250.172 7.02934C249.945 7.24755 249.547 7.67588 249.093 8.17695C248.55 8.775 247.901 9.47812 247.35 10.0196H251.509C251.574 10.0196 251.753 9.94686 251.842 9.85797C252.069 9.60743 252.507 9.19526 252.969 9.19526C253.31 9.19526 255.864 10.5126 255.864 11.5471C255.864 11.8703 255.677 12.4199 254.445 12.5088C253.764 12.5492 252.491 13.3655 251.363 14.0928C251.031 14.311 250.699 14.5131 250.399 14.699C250.536 14.8848 250.601 15.0626 250.601 15.2566C250.601 15.7415 250.115 16.0729 249.669 16.1779C249.166 16.2668 248.704 16.3476 248.153 16.7356C247.828 16.9538 247.504 17.1801 247.171 17.4144C246.669 17.762 246.158 18.1256 245.647 18.4489C245.842 18.5782 245.939 18.7399 245.939 18.9338C245.939 19.3137 245.558 19.5723 245.185 19.7743C244.796 19.9764 244.747 20.0006 244.706 20.6067H251.542C251.664 20.6067 251.793 20.534 251.834 20.4613C251.85 20.437 253.172 18.3843 253.772 18.3843C254.477 18.3843 256.902 20.4451 256.902 21.2371C256.902 21.3826 256.837 21.8433 256.002 21.8433H244.658C244.658 22.0453 244.658 22.2554 244.642 22.4575C244.642 22.7323 244.625 22.999 244.625 23.2576C244.625 23.5404 244.625 23.8233 244.642 24.0981C244.642 24.3567 244.658 24.6153 244.658 24.8578C244.658 25.1406 244.69 25.5043 244.715 25.868C244.747 26.2721 244.779 26.6762 244.779 27.0156C244.779 30.022 242.014 30.8221 240.547 30.8221L240.579 30.7979ZM238.439 9.10636C237.887 9.10636 237.385 8.69419 237.052 7.98299C236.752 7.30412 235.893 6.16459 235.211 5.54229C235.001 5.33216 234.895 5.21902 234.895 5.06546C234.895 4.75836 235.22 4.75836 235.349 4.75836C236.59 4.75836 239.704 5.62311 239.704 7.67588C239.704 8.4679 239.136 9.10636 238.447 9.10636H238.439ZM243.401 8.69419C242.914 8.69419 242.306 8.33859 242.063 7.35261C241.86 6.56868 241.155 5.33216 240.62 4.66138C240.466 4.46741 240.385 4.30578 240.385 4.18455C240.385 4.00675 240.531 3.87744 240.725 3.87744C240.968 3.87744 244.747 4.92807 244.747 7.15057C244.747 8.00724 244.139 8.70227 243.393 8.70227L243.401 8.69419Z" fill="#595757"/>
<path d="M267.701 30.7979C267.215 30.7979 266.647 30.4908 266.647 29.6341V29.5452C266.826 26.7085 266.915 22.5141 266.915 17.075C266.915 14.3838 266.882 11.83 266.858 9.9065C266.858 9.03366 266.704 6.38284 266.445 5.27563C266.412 5.17057 266.412 5.08167 266.412 5.04126V4.79073L266.688 4.73415C267.182 4.73415 269.769 6.05957 269.785 6.07573L269.842 6.1323H271.529C271.666 6.1323 271.715 6.07573 271.739 6.05957C271.82 5.97875 271.918 5.84136 272.015 5.70397C272.161 5.50192 272.242 5.38878 272.331 5.32412C272.469 5.22714 272.566 5.15441 272.72 5.15441C273.272 5.15441 275.258 6.68186 275.258 7.23951C275.258 7.57894 274.942 7.86989 274.399 8.0396C274.18 8.10426 273.994 8.15275 273.758 8.50027C272.404 10.5045 271.456 11.9754 271.456 12.5654C271.456 12.8887 271.634 13.1715 272.153 13.6969L272.299 13.8504C272.793 14.3596 273.393 14.9899 273.888 15.7577C275.777 13.0422 277.545 9.72062 278.542 6.99705C278.713 6.52831 278.85 5.83328 278.948 4.92003L278.964 4.82305C278.988 4.60484 279.11 4.4917 279.313 4.4917C279.475 4.4917 282.621 5.43727 282.621 6.3101C282.621 6.7546 282.094 6.96473 281.575 7.1102C281.226 7.20718 281.21 7.21526 280.926 7.75674C280.326 8.86395 279.613 10.0277 278.753 11.3046C279.094 11.3693 279.459 11.4663 279.718 11.6279L279.994 11.6602C281.98 11.9108 284.234 12.0078 285.864 12.0401C285.775 7.83756 285.71 6.56872 285.426 5.17057C285.394 5.07359 285.394 4.98469 285.394 4.94428C285.394 4.75032 285.532 4.60484 285.735 4.60484C286.035 4.60484 289.31 4.92812 289.31 5.94642C289.31 6.23737 289.108 6.53639 288.727 6.80309C288.613 6.88391 288.508 6.94048 288.418 6.98897C288.191 7.1102 288.135 7.14253 288.118 8.08001C288.086 9.06599 288.086 10.4561 288.086 12.0643H288.256C288.329 12.0643 288.54 11.9916 288.581 11.9431C289.383 10.5692 289.602 10.1974 290.04 10.1974C290.113 10.1974 290.178 10.2136 290.219 10.2217H290.267L290.34 10.2459C291.175 10.5854 292.602 11.9108 292.602 12.6705C292.602 12.8159 292.546 13.2766 291.792 13.2766H288.086C288.086 16.9377 288.151 21.0917 288.232 23.2414C288.24 23.5809 288.272 24.09 288.297 24.6315C288.337 25.472 288.378 26.361 288.378 26.7166C288.378 29.1412 286.164 30.4019 284.559 30.4019C284.267 30.4019 284.113 30.2241 283.975 30.0625C283.934 30.014 283.894 29.9655 283.845 29.917C283.578 29.6099 282.515 29.0523 281.745 28.6401C280.529 28.0016 280.359 27.8966 280.359 27.6703V27.4197H280.61C280.74 27.4197 280.845 27.4197 281.015 27.4521C282.361 27.7349 283.31 27.8642 284.032 27.8642C285.718 27.8642 285.962 27.1934 285.986 26.5388C286.018 25.8034 286.018 24.8174 286.018 23.6698C286.018 20.534 285.953 16.2992 285.905 13.2847C284.591 13.3089 282.961 13.3493 281.267 13.5191C280.764 13.5191 280.213 12.9533 279.921 12.4684C279.767 12.6462 279.523 12.7755 279.296 12.8806L279.215 12.921C278.923 13.0557 278.769 13.3763 278.753 13.8827C278.656 16.4204 278.607 19.6208 278.607 22.6757C278.607 24.8982 278.64 27.1126 278.696 29.0684C278.696 29.9089 277.967 30.5716 277.107 30.5716C276.58 30.5716 275.964 30.2403 275.964 29.319V29.1735C276.296 25.3427 276.531 19.9037 276.531 15.9274V14.3757C275.777 15.3294 275.088 16.1214 274.431 16.7841C274.723 17.5034 274.861 18.1822 274.861 18.8611C274.861 21.7302 272.68 23.2576 271.107 23.2576C270.791 23.2576 270.564 23.1283 270.442 22.8858C270.32 22.6596 269.826 22.1827 269.428 21.7948C269.323 21.6978 269.226 21.5928 269.128 21.5039C269.128 24.2032 269.128 26.9106 269.161 29.4402C269.161 30.2645 268.399 30.8141 267.693 30.8141L267.701 30.7979ZM269.177 20.4613C269.704 20.6553 270.239 20.7603 270.701 20.7603C271.893 20.7603 272.502 19.8875 272.502 18.1661C272.502 16.6467 271.845 15.5637 271.058 14.3919C270.596 13.6807 270.328 13.2524 270.328 12.622C270.328 12.3149 270.385 11.9835 270.515 11.4905C270.75 10.6581 271.52 7.51429 271.545 7.32033L269.639 7.38498L269.518 7.4658C269.193 7.69209 269.153 7.71633 269.153 8.71039C269.12 12.1532 269.12 16.2749 269.12 20.4371C269.137 20.4371 269.145 20.4451 269.161 20.4532L269.177 20.4613ZM283.602 21.5281C283.107 21.5281 282.597 21.1887 282.207 20.5825C281.518 19.5238 280.237 18.4489 279.345 17.8994C279.159 17.7782 279.078 17.665 279.078 17.5357C279.078 17.4306 279.118 17.1963 279.532 17.1963C280.602 17.1963 284.802 17.9721 284.802 20.1704C284.802 20.922 284.275 21.5119 283.602 21.5119V21.5281Z" fill="#595757"/>
<path d="M306.769 30.9191C306.144 30.9191 305.747 30.5392 305.747 29.9574V29.8685C305.982 27.0722 305.982 26.4175 305.982 24.979C305.982 24.5991 305.893 22.3201 305.658 21.2048L305.641 21.0836V21.0512L305.625 20.9704C305.625 20.7764 305.755 20.631 305.933 20.631C306.25 20.631 308.009 21.4876 308.682 21.9321H308.852V21.9645H313.677V19.8551H309.923V19.9359C309.923 20.6552 309.25 21.0997 308.633 21.0997C308.058 21.0997 307.669 20.7037 307.669 20.1137V19.9683C307.782 18.9419 307.847 18.2711 307.847 17.6246V17.2124C307.847 16.8083 307.806 15.5879 307.612 14.7798L307.587 14.6585V14.5696C307.579 14.4161 307.669 14.2625 307.887 14.2625C308.244 14.2625 309.688 14.8929 310.361 15.2728H313.669C313.669 14.707 313.661 13.9312 313.58 13.2604C311.625 13.3654 309.444 13.422 307.255 13.422C306.704 13.422 306.379 13.2685 306.379 12.9937C306.379 12.7189 306.647 12.5815 307.174 12.5411C310.531 12.1774 314.95 11.5551 317.228 10.9167C317.699 10.7954 317.974 10.5934 318.185 10.4398L318.242 10.3994H305.95C305.917 19.7501 304.012 25.8599 300.12 29.0684C299.755 29.3836 299.268 29.7149 298.976 29.7149C298.652 29.7149 298.636 29.4563 298.636 29.4078C298.636 29.327 298.636 29.1492 299.268 28.4703C301.944 25.5851 303.541 19.3136 303.541 11.6925C303.541 7.27178 302.974 4.94423 302.958 4.84724C302.925 4.74218 302.925 4.6452 302.925 4.58055C302.925 4.38658 303.039 4.27344 303.233 4.27344C303.671 4.27344 305.941 5.2675 306.493 5.61501H319.937C320.042 5.60693 320.147 5.55036 320.22 5.46146C320.22 5.46146 320.95 4.45124 321.453 4.45124C321.956 4.45124 324.258 5.85747 324.258 6.59291C324.258 7.03741 323.861 7.31219 323.472 7.52232C323.302 7.61122 323.164 7.66779 323.058 7.71628C322.891 7.78632 322.796 7.95334 322.775 8.21735V8.31433C322.775 8.55678 322.823 8.92047 322.872 9.31647C322.912 9.6155 322.953 9.93069 322.977 10.2216C322.977 11.1187 321.996 11.5309 321.453 11.5309C320.788 11.5309 320.375 11.143 320.375 10.5126V10.4075H318.866C319.483 10.8116 320.61 11.9915 320.61 12.533C320.61 12.6462 320.561 13.0179 319.969 13.0179C319.71 13.0179 319.41 12.9614 319.085 12.8563C319.012 12.8401 318.883 12.8078 318.745 12.8078H318.599C318.023 12.9129 317.277 12.9856 316.474 13.0583C316.531 13.1311 316.564 13.22 316.564 13.3331C316.564 13.6887 316.182 13.8584 316.061 13.915C315.861 14.0066 315.753 14.2895 315.736 14.7636V15.2728H319.142C319.207 15.2728 319.272 15.2243 319.312 15.1515C319.783 14.3999 320.18 14.3191 320.326 14.3191C320.845 14.3191 322.742 15.4586 322.742 16.1375C322.742 16.5093 322.41 16.7032 322.166 16.8487L322.061 16.9134C321.68 17.1396 321.648 17.269 321.648 17.5357V17.8347C321.664 18.2711 321.704 18.6833 321.745 19.0389C321.769 19.2652 321.785 19.4753 321.802 19.6612V19.7662C321.802 20.6067 321.031 20.9947 320.512 20.9947C319.904 20.9947 319.491 20.5825 319.491 19.9764V19.8713H315.68C315.68 20.2431 315.68 20.6067 315.696 20.9704C315.696 21.3179 315.704 21.6574 315.712 21.9806H321.202C321.291 21.9806 321.356 21.9402 321.404 21.8675C321.777 21.2209 322.012 21.0916 322.304 21.0916C322.596 21.0916 324.964 22.0453 324.964 22.9666C324.964 23.3545 324.599 23.597 324.331 23.7505C324.218 23.8152 324.113 23.8637 324.031 23.9041C323.81 24.0119 323.685 24.2786 323.658 24.7042V25.0436C323.658 25.3023 323.658 25.5689 323.675 25.8195C323.675 26.0619 323.691 26.3044 323.691 26.5226C323.691 26.7408 323.707 26.9267 323.723 27.1126C323.74 27.3227 323.756 27.5409 323.756 27.8238C323.756 30.119 321.193 30.6201 320.561 30.6201C320.172 30.6201 320.01 30.3695 319.872 30.1513C319.685 29.8685 318.72 29.327 318.08 28.9633C317.147 28.438 316.945 28.3168 316.945 28.0905C316.945 28.0258 316.969 27.8157 317.285 27.8157C317.35 27.8157 317.423 27.8238 317.537 27.848L317.739 27.8803C318.793 28.1147 319.645 28.2359 320.293 28.2359C321.307 28.2359 321.453 27.9127 321.469 27.5571V23.3869C321.469 23.2171 321.429 23.2171 321.299 23.2171H316.993C318.469 23.4111 320.983 24.7931 320.983 26.3125C320.983 27.0237 320.512 27.5975 319.929 27.5975C319.661 27.5975 319.158 27.4763 318.81 26.6438C318.696 26.3529 318.51 26.0215 318.201 25.6013C316.928 26.0458 314.723 26.5307 312.939 26.9186C312.055 27.1126 311.277 27.2823 310.807 27.4035C310.685 27.4358 310.604 27.5005 310.523 27.5732C310.417 27.6621 310.296 27.7672 310.117 27.7672C309.379 27.7672 308.528 25.4477 308.528 25.3265C308.528 25.2618 308.552 25.0517 308.869 25.0517H309.015C310.077 25.1972 311.317 25.1972 311.455 25.1972C311.99 25.1972 312.761 25.1487 313.645 25.0679C313.645 24.8578 313.645 24.6234 313.653 24.3728C313.653 24.0172 313.669 23.6212 313.669 23.201H308.617L308.504 23.2818L308.342 23.3788C308.139 23.4919 308.131 23.5 308.115 24.2031C308.082 24.7365 308.082 25.2053 308.082 25.7063C308.082 26.5468 308.098 27.4116 308.123 28.5269L308.147 29.7634C308.147 30.4504 307.433 30.9029 306.769 30.9029V30.9191ZM315.728 23.2171C315.728 23.5647 315.736 23.9041 315.745 24.2193C315.745 24.4537 315.753 24.68 315.753 24.8901C316.393 24.8254 316.977 24.7689 317.48 24.7042C317.204 24.3971 316.896 24.0981 316.555 23.8071L316.466 23.7263C316.409 23.6778 316.32 23.6051 316.32 23.4677C316.32 23.4192 316.336 23.2656 316.499 23.2091H315.72L315.728 23.2171ZM319.556 18.6267C319.564 18.4166 319.564 18.2145 319.564 17.9559C319.564 17.6326 319.564 17.1962 319.507 16.6467C319.507 16.6224 319.491 16.5416 319.402 16.5416H315.728V18.6186H319.556V18.6267ZM313.677 18.6267V16.5497H310.442L310.304 16.6547C310.071 16.7894 309.95 16.978 309.939 17.2205V17.3174V18.6267H313.693H313.677ZM320.456 9.14676V8.56487C320.456 7.93449 320.456 7.33644 320.423 7.04549C320.423 6.95659 320.423 6.88386 320.229 6.88386H306.509C306.444 6.94043 306.355 7.01316 306.25 7.06165C306.006 7.21521 305.974 7.23945 305.974 7.96681V9.13867H320.456V9.14676Z" fill="#595757"/>
<path d="M344.91 30.8222C344.416 30.8222 343.921 30.507 343.921 29.8039V29.715C344.197 25.9973 344.253 21.3261 344.278 19.0712C344.278 18.4166 344.221 16.6386 344.043 15.6526V15.6203L344.01 15.4587C344.01 15.2647 344.148 15.1192 344.351 15.1192C344.618 15.1192 346.378 15.9193 347.043 16.3396L347.108 16.3881H350.197V15.8062C350.197 14.7232 350.116 13.7534 349.986 13.1554H349.767C348.373 13.1554 346.662 13.1796 344.116 13.4221C343.41 13.4221 342.502 12.2825 342.502 11.7815V11.4986L342.778 11.5309C345.672 11.8623 348.454 11.9108 349.856 11.9108H356.011C356.116 11.9108 356.238 11.8542 356.27 11.7976C357.511 10.1247 357.722 10.0439 357.997 10.0439C358.605 10.0439 360.86 11.6117 360.86 12.5412C360.86 12.719 360.779 13.1473 360.016 13.1473H353.343C353.359 13.1877 353.367 13.2362 353.367 13.2847C353.367 13.5837 353.051 13.7534 352.711 13.8989C352.532 13.9743 352.435 14.2168 352.419 14.6263V14.7232C352.386 15.2809 352.362 15.8385 352.321 16.38H356.359C356.416 16.38 356.465 16.3719 356.53 16.2669C356.895 15.6446 357.17 15.4102 357.519 15.4102C357.819 15.4102 360.057 16.5093 360.057 17.3175C360.057 17.6246 359.814 17.9317 359.392 18.158C359.278 18.2226 359.181 18.2711 359.092 18.3196C358.784 18.4732 358.768 18.4813 358.751 19.1036C358.751 19.241 358.751 19.4188 358.735 19.6046C358.735 19.8309 358.719 20.0895 358.719 20.3643C358.719 21.124 358.735 22.013 358.751 22.902C358.768 23.7829 358.784 24.6638 358.784 25.3993C358.784 25.6256 358.8 25.9408 358.816 26.2721C358.832 26.6277 358.849 26.9914 358.849 27.2662C358.849 29.1492 357.389 30.5635 355.451 30.5635C355.086 30.5635 354.957 30.3534 354.819 30.1271C354.6 29.8039 353.57 29.2462 352.881 28.8744C351.859 28.3168 351.665 28.2037 351.665 27.9693C351.665 27.7915 351.811 27.6622 352.005 27.6622C352.078 27.6622 352.167 27.6783 352.289 27.7026L352.435 27.7268C353.7 27.9531 354.478 28.0501 355.038 28.0501C356.424 28.0501 356.546 27.5975 356.57 26.9591C356.603 25.9003 356.627 24.6881 356.627 23.5324C356.627 22.1262 356.603 20.7522 356.586 19.645C356.578 18.8934 356.562 18.255 356.562 17.8105C356.562 17.7297 356.554 17.6893 356.546 17.6812C356.538 17.6812 356.497 17.6812 356.424 17.6812H352.192C352.111 18.3762 351.989 19.0632 351.827 19.7178C353.059 19.9522 356.108 20.8896 356.108 22.9424C356.108 23.7425 355.565 24.3729 354.876 24.3729C354.349 24.3729 353.854 23.9769 353.546 23.3061C353.157 22.5141 352.508 21.423 351.551 20.6068C350.4 24.0658 347.959 25.3589 346.264 26.2075V29.6099C346.264 30.313 345.551 30.806 344.91 30.806V30.8222ZM347.051 17.6973C346.443 17.9964 346.435 18.0772 346.41 18.6995C346.329 20.6553 346.297 22.7969 346.264 25.173C348.656 23.4596 349.865 21.124 350.14 17.6892H347.051V17.6973ZM335.075 30.5878C334.88 30.5878 334.734 30.4423 334.734 30.2484C334.734 30.1595 334.734 29.9736 335.464 29.2947C338.124 26.8217 339.624 23.3303 340.037 18.6429C339.526 19.047 338.967 19.4511 338.415 19.8471C337.929 20.1946 337.451 20.534 337.013 20.8816C336.98 20.9058 336.94 20.9705 336.899 21.0351C336.794 21.1967 336.632 21.4392 336.323 21.4392C335.732 21.4392 334.231 19.346 334.231 19.0874C334.231 18.7803 334.556 18.7803 334.75 18.7803C335.48 18.7803 337.005 18.5217 340.126 17.3175C340.151 16.873 340.151 16.4285 340.151 15.984C340.151 13.2847 339.753 8.59724 339.413 7.33648C339.372 7.22333 339.372 7.13443 339.372 7.0617C339.372 6.86774 339.502 6.72226 339.68 6.72226C340.167 6.72226 342.259 7.74865 342.907 8.15274L343.062 8.26588H348.259V7.3284C348.259 6.00298 348.178 5.13015 347.967 4.33814C347.927 4.22499 347.902 4.16034 347.902 4.07144V3.8209L348.21 3.78857C348.21 3.78857 351.875 4.0876 351.875 5.07358C351.875 5.34028 351.665 5.62314 351.275 5.84943C351.129 5.93833 351.008 6.00298 350.911 6.05147C350.721 6.14846 350.616 6.40169 350.594 6.81116C350.57 7.15868 350.546 7.74865 350.538 8.26588H355.816C355.938 8.26588 356.068 8.19315 356.108 8.12041C357.195 6.58487 357.414 6.27777 357.9 6.27777C357.973 6.27777 358.078 6.27776 358.192 6.33434C358.768 6.54446 360.916 8.10425 360.916 8.89626C360.916 9.04174 360.851 9.5024 360.008 9.5024H342.81C342.299 9.83375 342.299 9.84992 342.299 10.2944C342.299 10.3672 342.299 10.448 342.307 10.5369C342.316 10.6743 342.324 10.8359 342.324 11.0299C342.372 12.0967 342.445 13.4382 342.445 14.7313C342.445 19.637 341.748 25.7953 336.283 29.9493C335.707 30.3777 335.302 30.5959 335.059 30.5959L335.075 30.5878ZM338.318 15.8062C337.775 15.8062 337.305 15.4506 337.021 14.8283C336.705 14.1737 335.902 13.115 335.196 12.5816C334.929 12.3957 334.799 12.2987 334.799 12.1209V12.0158L334.872 11.9431C334.872 11.9431 335.002 11.838 335.164 11.838C335.869 11.838 339.697 12.3068 339.697 14.3676C339.697 15.1273 339.056 15.7981 338.318 15.7981V15.8062Z" fill="#595757"/>
<path d="M374.879 30.8218C374.466 30.8218 374.425 30.6036 374.425 30.5147C374.425 30.2399 374.904 30.0702 375.301 29.9732C380.766 28.6236 382.825 23.7341 382.923 19.9599V18.6587C382.096 18.7153 381.236 18.7719 380.174 18.9093C379.671 18.9093 379.047 18.3193 378.714 17.7859C378.779 18.1173 378.82 18.4728 378.82 18.8365C378.82 21.7056 376.655 23.233 375.09 23.233C374.774 23.233 374.547 23.1037 374.417 22.8613C374.295 22.635 373.801 22.1581 373.403 21.7702C373.298 21.6732 373.201 21.5763 373.103 21.4793C373.103 24.1786 373.136 26.886 373.16 29.4075C373.16 30.2319 372.398 30.7814 371.693 30.7814C371.206 30.7814 370.638 30.4743 370.638 29.6176V29.5287C370.801 26.3041 370.906 21.2934 370.906 16.4362C370.906 14.4239 370.89 12.2175 370.849 9.88999C370.849 9.01716 370.695 6.36633 370.444 5.25913C370.403 5.15406 370.403 5.06516 370.403 5.02475V4.77422L370.687 4.71765C371.166 4.71765 373.558 5.90567 373.776 6.0673L373.825 6.10771H375.495C375.56 6.10771 375.609 6.09155 375.674 6.03498C375.755 5.95416 375.852 5.81677 375.949 5.68746C376.095 5.48542 376.185 5.37227 376.266 5.30762C376.387 5.2268 376.517 5.1379 376.687 5.1379C376.923 5.1379 379.169 6.5118 379.169 7.223C379.169 7.57052 378.869 7.86146 378.342 8.0231C378.123 8.08775 377.936 8.13624 377.701 8.48376L377.587 8.66156C376.241 10.7547 375.422 12.0155 375.422 12.5812C375.422 12.9045 375.658 13.2197 376.095 13.6884L376.274 13.8743C377.02 14.6582 377.96 15.6361 378.455 16.9454V16.8646L378.739 16.905C381.52 17.2929 384.058 17.3495 385.955 17.3495H390.593C390.683 17.3495 390.812 17.2767 390.853 17.204C391.939 15.5715 392.377 15.5715 392.523 15.5715C392.596 15.5715 392.661 15.5877 392.702 15.5957H392.75L392.823 15.62C393.237 15.7816 395.361 17.0828 395.361 17.9879C395.361 18.1657 395.28 18.5941 394.485 18.5941H389.847C389.807 18.7638 389.645 18.9658 389.182 19.1113C388.939 19.2083 388.931 19.2083 388.907 19.7174C388.85 20.6549 388.785 23.0148 388.785 25.0353C388.785 26.8833 389.496 27.8073 390.918 27.8073C393.099 27.8073 393.383 27.8073 394.121 23.427C394.153 23.2492 394.194 23.1684 394.202 23.1441L394.266 23.0067H394.421C394.721 23.0067 394.737 23.2007 394.867 24.4776C394.939 25.2131 395.094 26.7324 395.288 26.9345C395.718 27.2335 395.977 27.6295 395.977 28.0174C395.977 29.2782 394.185 29.8924 390.496 29.8924C389.555 29.8924 386.677 29.8924 386.677 27.3628V27.2416C386.709 26.5304 386.709 21.4631 386.709 20.4529C386.709 19.3538 386.677 18.8365 386.653 18.5698H385.89C385.826 18.7476 385.663 18.9335 385.323 19.1032C385.153 19.184 385.136 19.2002 385.136 19.8629C384.974 30.1672 374.968 30.8057 374.871 30.8057L374.879 30.8218ZM373.144 20.4529C373.663 20.6469 374.206 20.7519 374.636 20.7519C375.406 20.7519 376.436 20.4771 376.436 18.1253C376.436 16.6221 375.763 15.4988 375.017 14.3835C374.555 13.6723 374.295 13.2439 374.295 12.6136C374.295 12.3064 374.352 11.9751 374.482 11.4821C374.668 10.8032 375.479 7.65133 375.487 7.33614L373.614 7.37655L373.493 7.45737C373.209 7.67558 373.16 7.70791 373.16 8.70197C373.136 12.1448 373.103 16.2665 373.103 20.4286C373.12 20.4286 373.128 20.4367 373.144 20.4448V20.4529ZM381.771 14.5532C381.188 14.5532 380.352 13.4783 380.279 12.953C379.955 13.2035 379.598 13.3409 379.217 13.3409C378.479 13.3409 377.896 12.7914 377.896 12.0882C377.896 11.6518 378.114 11.2073 378.512 10.8356C379.866 9.5748 380.166 8.78279 380.369 7.36847C380.433 6.92397 380.62 6.82699 380.766 6.82699C381.244 6.82699 381.471 7.94228 381.544 8.42719H385.144C385.144 8.35445 385.144 8.27363 385.136 8.2009C385.136 8.0231 385.12 7.85338 385.12 7.69983C385.12 6.55221 385.007 5.27529 384.828 4.52368C384.796 4.41862 384.796 4.32972 384.796 4.25698V4.00645L385.072 3.97412C385.072 3.97412 388.558 4.28123 388.558 5.29145C388.558 5.47733 388.461 5.75211 387.982 6.01073C387.877 6.07539 387.78 6.1158 387.699 6.1562C387.407 6.29359 387.382 6.30976 387.342 7.3119C387.342 7.40888 387.318 8.22514 387.318 8.4191H391.583C391.647 8.4191 391.834 8.33829 391.915 8.25747C392.199 7.91803 392.531 7.59476 392.985 7.59476C393.269 7.59476 395.556 8.80703 395.556 9.91424C395.556 10.1244 395.458 10.7952 394.185 10.8436C393.772 10.8598 393.058 11.4579 392.361 12.0317C392.061 12.2822 391.761 12.5327 391.461 12.759C391.802 13.1308 391.956 13.4137 391.956 13.648C391.956 13.7935 391.899 14.2542 391.145 14.2542H385.826C384.447 14.2542 382.971 14.4077 381.844 14.5451H381.828H381.779L381.771 14.5532ZM380.612 12.6459C382.363 12.8964 384.342 13.05 385.907 13.05H387.658C387.715 13.05 387.764 13.0419 387.828 12.9368C388.672 11.7084 389.037 11.3366 389.377 11.3366C389.442 11.3366 389.491 11.3528 389.531 11.3609H389.58L389.653 11.3851C390.001 11.5306 390.407 11.7973 390.796 12.1125C391.12 11.2801 391.485 10.0516 391.534 9.67178H381.634C381.609 10.9002 381.212 11.9832 380.612 12.654V12.6459Z" fill="#595757"/>
</g>
<defs>
<clipPath id="clip0_1640_6838">
<rect width="395.044" height="45.8189" fill="white" transform="translate(0.958008 0.748047)"/>
</clipPath>
</defs>
</svg>
